<svg width="79" height="30" viewBox="0 0 79 30" fill="none" xmlns="http://www.w3.org/2000/svg">
<mask id="path-1-outside-1_25_268" maskUnits="userSpaceOnUse" x="36" y="3" width="43" height="23" fill="black">
<rect fill="white" x="36" y="3" width="43" height="23"/>
<path d="M49.66 11.8H47.82V22H45.04V19.64C44.24 20.06 43.3 20.28 42.14 20.28C39.4 20.28 37.7 18.86 37.7 16.58C37.7 14.18 39.46 12.94 42.18 12.94C43.04 12.94 43.76 13.02 44.42 13.18L44.2 15.22C43.74 15.12 43.18 15.04 42.54 15.04C42.5 15.04 42.44 15.04 42.38 15.04L44.34 17.52C44.6 17.34 44.84 17.14 45.04 16.94V11.8H37V9.56H49.66V11.8ZM40.32 16.66C40.32 17.7 41.08 18.18 42.24 18.18C42.46 18.18 42.68 18.16 42.88 18.12L40.82 15.52C40.5 15.78 40.32 16.16 40.32 16.66ZM53.7228 11.8V22H50.9228V11.8H49.3828V9.56H55.5628V11.8H53.7228ZM69.4417 11.8V22H66.6417V15.54H65.2417C64.6817 15.54 64.2417 15.52 63.9017 15.48C64.6417 16.14 65.0417 16.9 65.0417 17.86C65.0417 19.74 63.6017 20.74 61.7217 20.74C59.2417 20.74 57.2617 19.32 55.6417 14.4L57.9417 13.56C58.9817 16.84 60.0217 18.48 61.2617 18.48C61.8817 18.48 62.3017 18.18 62.3017 17.44C62.3017 16.52 61.6617 15.78 60.5417 15.06L61.2417 13.36H66.6417V11.8H55.2617V9.56H71.2817V11.8H69.4417ZM59.8417 23.14C59.8417 22.34 60.4617 21.7 61.3017 21.7C62.1217 21.7 62.7217 22.34 62.7217 23.14C62.7217 23.98 62.1217 24.58 61.3017 24.58C60.4617 24.58 59.8417 23.98 59.8417 23.14ZM75.3244 11.8V22H72.5244V11.8H70.9844V9.56H72.5044C72.0044 7.44 71.2244 6.32 70.0044 6.32C69.0644 6.32 68.6244 6.88 68.6244 7.78C68.6244 8.44 68.8644 9.1 69.1644 9.7H66.4444C66.0644 8.9 65.8444 8.08 65.8444 7.32C65.8444 5.36 67.2044 4.08 69.5444 4.08C72.8644 4.08 74.2844 6.32 75.0644 9.56H77.1644V11.8H75.3244Z"/>
</mask>
<path d="M49.66 11.8H47.82V22H45.04V19.64C44.24 20.06 43.3 20.28 42.14 20.28C39.4 20.28 37.7 18.86 37.7 16.58C37.7 14.18 39.46 12.94 42.18 12.94C43.04 12.94 43.76 13.02 44.42 13.18L44.2 15.22C43.74 15.12 43.18 15.04 42.54 15.04C42.5 15.04 42.44 15.04 42.38 15.04L44.34 17.52C44.6 17.34 44.84 17.14 45.04 16.94V11.8H37V9.56H49.66V11.8ZM40.32 16.66C40.32 17.7 41.08 18.18 42.24 18.18C42.46 18.18 42.68 18.16 42.88 18.12L40.82 15.52C40.5 15.78 40.32 16.16 40.32 16.66ZM53.7228 11.8V22H50.9228V11.8H49.3828V9.56H55.5628V11.8H53.7228ZM69.4417 11.8V22H66.6417V15.54H65.2417C64.6817 15.54 64.2417 15.52 63.9017 15.48C64.6417 16.14 65.0417 16.9 65.0417 17.86C65.0417 19.74 63.6017 20.74 61.7217 20.74C59.2417 20.74 57.2617 19.32 55.6417 14.4L57.9417 13.56C58.9817 16.84 60.0217 18.48 61.2617 18.48C61.8817 18.48 62.3017 18.18 62.3017 17.44C62.3017 16.52 61.6617 15.78 60.5417 15.06L61.2417 13.36H66.6417V11.8H55.2617V9.56H71.2817V11.8H69.4417ZM59.8417 23.14C59.8417 22.34 60.4617 21.7 61.3017 21.7C62.1217 21.7 62.7217 22.34 62.7217 23.14C62.7217 23.98 62.1217 24.58 61.3017 24.58C60.4617 24.58 59.8417 23.98 59.8417 23.14ZM75.3244 11.8V22H72.5244V11.8H70.9844V9.56H72.5044C72.0044 7.44 71.2244 6.32 70.0044 6.32C69.0644 6.32 68.6244 6.88 68.6244 7.78C68.6244 8.44 68.8644 9.1 69.1644 9.7H66.4444C66.0644 8.9 65.8444 8.08 65.8444 7.32C65.8444 5.36 67.2044 4.08 69.5444 4.08C72.8644 4.08 74.2844 6.32 75.0644 9.56H77.1644V11.8H75.3244Z" fill="#CA8A04"/>
<path d="M49.66 11.8V12.8H50.66V11.8H49.66ZM47.82 11.8V10.8H46.82V11.8H47.82ZM47.82 22V23H48.82V22H47.82ZM45.04 22H44.04V23H45.04V22ZM45.04 19.64H46.04V17.9856L44.5752 18.7546L45.04 19.64ZM44.42 13.18L45.4142 13.2872L45.5083 12.4149L44.6556 12.2081L44.42 13.18ZM44.2 15.22L43.9876 16.1972L45.0749 16.4336L45.1942 15.3272L44.2 15.22ZM42.38 15.04V14.04H40.3151L41.5954 15.6601L42.38 15.04ZM44.34 17.52L43.5554 18.1401L44.1375 18.8765L44.9092 18.3422L44.34 17.52ZM45.04 16.94L45.7471 17.6471L46.04 17.3542V16.94H45.04ZM45.04 11.8H46.04V10.8H45.04V11.8ZM37 11.8H36V12.8H37V11.8ZM37 9.56V8.56H36V9.56H37ZM49.66 9.56H50.66V8.56H49.66V9.56ZM42.88 18.12L43.0761 19.1006L44.6788 18.78L43.6638 17.499L42.88 18.12ZM40.82 15.52L41.6038 14.899L40.9751 14.1055L40.1894 14.7439L40.82 15.52ZM49.66 10.8H47.82V12.8H49.66V10.8ZM46.82 11.8V22H48.82V11.8H46.82ZM47.82 21H45.04V23H47.82V21ZM46.04 22V19.64H44.04V22H46.04ZM44.5752 18.7546C43.9434 19.0863 43.1687 19.28 42.14 19.28V21.28C43.4313 21.28 44.5366 21.0337 45.5048 20.5254L44.5752 18.7546ZM42.14 19.28C40.9329 19.28 40.0727 18.9671 39.5329 18.517C39.014 18.0842 38.7 17.4514 38.7 16.58H36.7C36.7 17.9886 37.236 19.2058 38.2521 20.053C39.2473 20.8829 40.6071 21.28 42.14 21.28V19.28ZM38.7 16.58C38.7 15.6502 39.0264 15.0462 39.536 14.6477C40.0811 14.2214 40.9545 13.94 42.18 13.94V11.94C40.6855 11.94 39.3189 12.2786 38.304 13.0723C37.2536 13.8938 36.7 15.1098 36.7 16.58H38.7ZM42.18 13.94C42.9764 13.94 43.6155 14.0139 44.1844 14.1518L44.6556 12.2081C43.9045 12.0261 43.1036 11.94 42.18 11.94V13.94ZM43.4258 13.0728L43.2058 15.1128L45.1942 15.3272L45.4142 13.2872L43.4258 13.0728ZM44.4124 14.2428C43.8957 14.1305 43.2637 14.04 42.54 14.04V16.04C43.0963 16.04 43.5843 16.1095 43.9876 16.1972L44.4124 14.2428ZM42.54 14.04C42.5399 14.04 42.5398 14.04 42.5398 14.04C42.5397 14.04 42.5396 14.04 42.5395 14.04C42.5395 14.04 42.5394 14.04 42.5393 14.04C42.5392 14.04 42.5391 14.04 42.5391 14.04C42.539 14.04 42.5389 14.04 42.5388 14.04C42.5387 14.04 42.5387 14.04 42.5386 14.04C42.5385 14.04 42.5384 14.04 42.5383 14.04C42.5383 14.04 42.5382 14.04 42.5381 14.04C42.538 14.04 42.538 14.04 42.5379 14.04C42.5378 14.04 42.5377 14.04 42.5376 14.04C42.5376 14.04 42.5375 14.04 42.5374 14.04C42.5373 14.04 42.5372 14.04 42.5372 14.04C42.5371 14.04 42.537 14.04 42.5369 14.04C42.5368 14.04 42.5368 14.04 42.5367 14.04C42.5366 14.04 42.5365 14.04 42.5364 14.04C42.5364 14.04 42.5363 14.04 42.5362 14.04C42.5361 14.04 42.536 14.04 42.536 14.04C42.5359 14.04 42.5358 14.04 42.5357 14.04C42.5356 14.04 42.5355 14.04 42.5355 14.04C42.5354 14.04 42.5353 14.04 42.5352 14.04C42.5351 14.04 42.5351 14.04 42.535 14.04C42.5349 14.04 42.5348 14.04 42.5347 14.04C42.5347 14.04 42.5346 14.04 42.5345 14.04C42.5344 14.04 42.5343 14.04 42.5342 14.04C42.5342 14.04 42.5341 14.04 42.534 14.04C42.5339 14.04 42.5338 14.04 42.5338 14.04C42.5337 14.04 42.5336 14.04 42.5335 14.04C42.5334 14.04 42.5333 14.04 42.5333 14.04C42.5332 14.04 42.5331 14.04 42.533 14.04C42.5329 14.04 42.5328 14.04 42.5328 14.04C42.5327 14.04 42.5326 14.04 42.5325 14.04C42.5324 14.04 42.5324 14.04 42.5323 14.04C42.5322 14.04 42.5321 14.04 42.532 14.04C42.5319 14.04 42.5319 14.04 42.5318 14.04C42.5317 14.04 42.5316 14.04 42.5315 14.04C42.5314 14.04 42.5314 14.04 42.5313 14.04C42.5312 14.04 42.5311 14.04 42.531 14.04C42.5309 14.04 42.5309 14.04 42.5308 14.04C42.5307 14.04 42.5306 14.04 42.5305 14.04C42.5304 14.04 42.5304 14.04 42.5303 14.04C42.5302 14.04 42.5301 14.04 42.53 14.04C42.5299 14.04 42.5298 14.04 42.5298 14.04C42.5297 14.04 42.5296 14.04 42.5295 14.04C42.5294 14.04 42.5293 14.04 42.5293 14.04C42.5292 14.04 42.5291 14.04 42.529 14.04C42.5289 14.04 42.5288 14.04 42.5287 14.04C42.5287 14.04 42.5286 14.04 42.5285 14.04C42.5284 14.04 42.5283 14.04 42.5282 14.04C42.5282 14.04 42.5281 14.04 42.528 14.04C42.5279 14.04 42.5278 14.04 42.5277 14.04C42.5276 14.04 42.5276 14.04 42.5275 14.04C42.5274 14.04 42.5273 14.04 42.5272 14.04C42.5271 14.04 42.527 14.04 42.527 14.04C42.5269 14.04 42.5268 14.04 42.5267 14.04C42.5266 14.04 42.5265 14.04 42.5264 14.04C42.5264 14.04 42.5263 14.04 42.5262 14.04C42.5261 14.04 42.526 14.04 42.5259 14.04C42.5258 14.04 42.5258 14.04 42.5257 14.04C42.5256 14.04 42.5255 14.04 42.5254 14.04C42.5253 14.04 42.5252 14.04 42.5251 14.04C42.5251 14.04 42.525 14.04 42.5249 14.04C42.5248 14.04 42.5247 14.04 42.5246 14.04C42.5245 14.04 42.5245 14.04 42.5244 14.04C42.5243 14.04 42.5242 14.04 42.5241 14.04C42.524 14.04 42.5239 14.04 42.5238 14.04C42.5238 14.04 42.5237 14.04 42.5236 14.04C42.5235 14.04 42.5234 14.04 42.5233 14.04C42.5232 14.04 42.5231 14.04 42.5231 14.04C42.523 14.04 42.5229 14.04 42.5228 14.04C42.5227 14.04 42.5226 14.04 42.5225 14.04C42.5224 14.04 42.5223 14.04 42.5223 14.04C42.5222 14.04 42.5221 14.04 42.522 14.04C42.5219 14.04 42.5218 14.04 42.5217 14.04C42.5216 14.04 42.5216 14.04 42.5215 14.04C42.5214 14.04 42.5213 14.04 42.5212 14.04C42.5211 14.04 42.521 14.04 42.5209 14.04C42.5208 14.04 42.5208 14.04 42.5207 14.04C42.5206 14.04 42.5205 14.04 42.5204 14.04C42.5203 14.04 42.5202 14.04 42.5201 14.04C42.52 14.04 42.52 14.04 42.5199 14.04C42.5198 14.04 42.5197 14.04 42.5196 14.04C42.5195 14.04 42.5194 14.04 42.5193 14.04C42.5192 14.04 42.5191 14.04 42.5191 14.04C42.519 14.04 42.5189 14.04 42.5188 14.04C42.5187 14.04 42.5186 14.04 42.5185 14.04C42.5184 14.04 42.5183 14.04 42.5182 14.04C42.5182 14.04 42.5181 14.04 42.518 14.04C42.5179 14.04 42.5178 14.04 42.5177 14.04C42.5176 14.04 42.5175 14.04 42.5174 14.04C42.5173 14.04 42.5173 14.04 42.5172 14.04C42.5171 14.04 42.517 14.04 42.5169 14.04C42.5168 14.04 42.5167 14.04 42.5166 14.04C42.5165 14.04 42.5164 14.04 42.5163 14.04C42.5163 14.04 42.5162 14.04 42.5161 14.04C42.516 14.04 42.5159 14.04 42.5158 14.04C42.5157 14.04 42.5156 14.04 42.5155 14.04C42.5154 14.04 42.5153 14.04 42.5152 14.04C42.5152 14.04 42.5151 14.04 42.515 14.04C42.5149 14.04 42.5148 14.04 42.5147 14.04C42.5146 14.04 42.5145 14.04 42.5144 14.04C42.5143 14.04 42.5142 14.04 42.5141 14.04C42.5141 14.04 42.514 14.04 42.5139 14.04C42.5138 14.04 42.5137 14.04 42.5136 14.04C42.5135 14.04 42.5134 14.04 42.5133 14.04C42.5132 14.04 42.5131 14.04 42.513 14.04C42.5129 14.04 42.5129 14.04 42.5128 14.04C42.5127 14.04 42.5126 14.04 42.5125 14.04C42.5124 14.04 42.5123 14.04 42.5122 14.04C42.5121 14.04 42.512 14.04 42.5119 14.04C42.5118 14.04 42.5117 14.04 42.5116 14.04C42.5116 14.04 42.5115 14.04 42.5114 14.04C42.5113 14.04 42.5112 14.04 42.5111 14.04C42.511 14.04 42.5109 14.04 42.5108 14.04C42.5107 14.04 42.5106 14.04 42.5105 14.04C42.5104 14.04 42.5103 14.04 42.5102 14.04C42.5102 14.04 42.5101 14.04 42.51 14.04C42.5099 14.04 42.5098 14.04 42.5097 14.04C42.5096 14.04 42.5095 14.04 42.5094 14.04C42.5093 14.04 42.5092 14.04 42.5091 14.04C42.509 14.04 42.5089 14.04 42.5088 14.04C42.5087 14.04 42.5086 14.04 42.5086 14.04C42.5085 14.04 42.5084 14.04 42.5083 14.04C42.5082 14.04 42.5081 14.04 42.508 14.04C42.5079 14.04 42.5078 14.04 42.5077 14.04C42.5076 14.04 42.5075 14.04 42.5074 14.04C42.5073 14.04 42.5072 14.04 42.5071 14.04C42.507 14.04 42.5069 14.04 42.5068 14.04C42.5068 14.04 42.5067 14.04 42.5066 14.04C42.5065 14.04 42.5064 14.04 42.5063 14.04C42.5062 14.04 42.5061 14.04 42.506 14.04C42.5059 14.04 42.5058 14.04 42.5057 14.04C42.5056 14.04 42.5055 14.04 42.5054 14.04C42.5053 14.04 42.5052 14.04 42.5051 14.04C42.505 14.04 42.5049 14.04 42.5048 14.04C42.5047 14.04 42.5047 14.04 42.5046 14.04C42.5045 14.04 42.5044 14.04 42.5043 14.04C42.5042 14.04 42.5041 14.04 42.504 14.04C42.5039 14.04 42.5038 14.04 42.5037 14.04C42.5036 14.04 42.5035 14.04 42.5034 14.04C42.5033 14.04 42.5032 14.04 42.5031 14.04C42.503 14.04 42.5029 14.04 42.5028 14.04C42.5027 14.04 42.5026 14.04 42.5025 14.04C42.5024 14.04 42.5023 14.04 42.5022 14.04C42.5021 14.04 42.502 14.04 42.5019 14.04C42.5019 14.04 42.5018 14.04 42.5017 14.04C42.5016 14.04 42.5015 14.04 42.5014 14.04C42.5013 14.04 42.5012 14.04 42.5011 14.04C42.501 14.04 42.5009 14.04 42.5008 14.04C42.5007 14.04 42.5006 14.04 42.5005 14.04C42.5004 14.04 42.5003 14.04 42.5002 14.04C42.5001 14.04 42.5 14.04 42.4999 14.04C42.4998 14.04 42.4997 14.04 42.4996 14.04C42.4995 14.04 42.4994 14.04 42.4993 14.04C42.4992 14.04 42.4991 14.04 42.499 14.04C42.4989 14.04 42.4988 14.04 42.4987 14.04C42.4986 14.04 42.4985 14.04 42.4984 14.04C42.4983 14.04 42.4982 14.04 42.4981 14.04C42.498 14.04 42.4979 14.04 42.4978 14.04C42.4977 14.04 42.4976 14.04 42.4975 14.04C42.4974 14.04 42.4973 14.04 42.4973 14.04C42.4972 14.04 42.4971 14.04 42.497 14.04C42.4969 14.04 42.4968 14.04 42.4967 14.04C42.4966 14.04 42.4965 14.04 42.4964 14.04C42.4963 14.04 42.4962 14.04 42.4961 14.04C42.496 14.04 42.4959 14.04 42.4958 14.04C42.4957 14.04 42.4956 14.04 42.4955 14.04C42.4954 14.04 42.4953 14.04 42.4952 14.04C42.4951 14.04 42.495 14.04 42.4949 14.04C42.4948 14.04 42.4947 14.04 42.4946 14.04C42.4945 14.04 42.4944 14.04 42.4943 14.04C42.4942 14.04 42.4941 14.04 42.494 14.04C42.4939 14.04 42.4938 14.04 42.4937 14.04C42.4936 14.04 42.4935 14.04 42.4934 14.04C42.4933 14.04 42.4932 14.04 42.4931 14.04C42.493 14.04 42.4929 14.04 42.4928 14.04C42.4927 14.04 42.4926 14.04 42.4925 14.04C42.4924 14.04 42.4923 14.04 42.4922 14.04C42.4921 14.04 42.492 14.04 42.4919 14.04C42.4918 14.04 42.4917 14.04 42.4916 14.04C42.4915 14.04 42.4914 14.04 42.4913 14.04C42.4912 14.04 42.4911 14.04 42.491 14.04C42.4909 14.04 42.4908 14.04 42.4907 14.04C42.4906 14.04 42.4905 14.04 42.4904 14.04C42.4903 14.04 42.4902 14.04 42.4901 14.04C42.49 14.04 42.4899 14.04 42.4898 14.04C42.4896 14.04 42.4895 14.04 42.4894 14.04C42.4893 14.04 42.4892 14.04 42.4891 14.04C42.489 14.04 42.4889 14.04 42.4888 14.04C42.4887 14.04 42.4886 14.04 42.4885 14.04C42.4884 14.04 42.4883 14.04 42.4882 14.04C42.4881 14.04 42.488 14.04 42.4879 14.04C42.4878 14.04 42.4877 14.04 42.4876 14.04C42.4875 14.04 42.4874 14.04 42.4873 14.04C42.4872 14.04 42.4871 14.04 42.487 14.04C42.4869 14.04 42.4868 14.04 42.4867 14.04C42.4866 14.04 42.4865 14.04 42.4864 14.04C42.4863 14.04 42.4862 14.04 42.4861 14.04C42.486 14.04 42.4859 14.04 42.4858 14.04C42.4857 14.04 42.4856 14.04 42.4855 14.04C42.4854 14.04 42.4853 14.04 42.4852 14.04C42.4851 14.04 42.485 14.04 42.4849 14.04C42.4848 14.04 42.4846 14.04 42.4845 14.04C42.4844 14.04 42.4843 14.04 42.4842 14.04C42.4841 14.04 42.484 14.04 42.4839 14.04C42.4838 14.04 42.4837 14.04 42.4836 14.04C42.4835 14.04 42.4834 14.04 42.4833 14.04C42.4832 14.04 42.4831 14.04 42.483 14.04C42.4829 14.04 42.4828 14.04 42.4827 14.04C42.4826 14.04 42.4825 14.04 42.4824 14.04C42.4823 14.04 42.4822 14.04 42.4821 14.04C42.482 14.04 42.4819 14.04 42.4818 14.04C42.4817 14.04 42.4815 14.04 42.4814 14.04C42.4813 14.04 42.4812 14.04 42.4811 14.04C42.481 14.04 42.4809 14.04 42.4808 14.04C42.4807 14.04 42.4806 14.04 42.4805 14.04C42.4804 14.04 42.4803 14.04 42.4802 14.04C42.4801 14.04 42.48 14.04 42.4799 14.04C42.4798 14.04 42.4797 14.04 42.4796 14.04C42.4795 14.04 42.4794 14.04 42.4793 14.04C42.4792 14.04 42.4791 14.04 42.4789 14.04C42.4788 14.04 42.4787 14.04 42.4786 14.04C42.4785 14.04 42.4784 14.04 42.4783 14.04C42.4782 14.04 42.4781 14.04 42.478 14.04C42.4779 14.04 42.4778 14.04 42.4777 14.04C42.4776 14.04 42.4775 14.04 42.4774 14.04C42.4773 14.04 42.4772 14.04 42.4771 14.04C42.477 14.04 42.4769 14.04 42.4767 14.04C42.4766 14.04 42.4765 14.04 42.4764 14.04C42.4763 14.04 42.4762 14.04 42.4761 14.04C42.476 14.04 42.4759 14.04 42.4758 14.04C42.4757 14.04 42.4756 14.04 42.4755 14.04C42.4754 14.04 42.4753 14.04 42.4752 14.04C42.4751 14.04 42.475 14.04 42.4748 14.04C42.4747 14.04 42.4746 14.04 42.4745 14.04C42.4744 14.04 42.4743 14.04 42.4742 14.04C42.4741 14.04 42.474 14.04 42.4739 14.04C42.4738 14.04 42.4737 14.04 42.4736 14.04C42.4735 14.04 42.4734 14.04 42.4733 14.04C42.4732 14.04 42.4731 14.04 42.4729 14.04C42.4728 14.04 42.4727 14.04 42.4726 14.04C42.4725 14.04 42.4724 14.04 42.4723 14.04C42.4722 14.04 42.4721 14.04 42.472 14.04C42.4719 14.04 42.4718 14.04 42.4717 14.04C42.4716 14.04 42.4715 14.04 42.4714 14.04C42.4712 14.04 42.4711 14.04 42.471 14.04C42.4709 14.04 42.4708 14.04 42.4707 14.04C42.4706 14.04 42.4705 14.04 42.4704 14.04C42.4703 14.04 42.4702 14.04 42.4701 14.04C42.47 14.04 42.4699 14.04 42.4698 14.04C42.4696 14.04 42.4695 14.04 42.4694 14.04C42.4693 14.04 42.4692 14.04 42.4691 14.04C42.469 14.04 42.4689 14.04 42.4688 14.04C42.4687 14.04 42.4686 14.04 42.4685 14.04C42.4684 14.04 42.4683 14.04 42.4681 14.04C42.468 14.04 42.4679 14.04 42.4678 14.04C42.4677 14.04 42.4676 14.04 42.4675 14.04C42.4674 14.04 42.4673 14.04 42.4672 14.04C42.4671 14.04 42.467 14.04 42.4669 14.04C42.4667 14.04 42.4666 14.04 42.4665 14.04C42.4664 14.04 42.4663 14.04 42.4662 14.04C42.4661 14.04 42.466 14.04 42.4659 14.04C42.4658 14.04 42.4657 14.04 42.4656 14.04C42.4655 14.04 42.4653 14.04 42.4652 14.04C42.4651 14.04 42.465 14.04 42.4649 14.04C42.4648 14.04 42.4647 14.04 42.4646 14.04C42.4645 14.04 42.4644 14.04 42.4643 14.04C42.4642 14.04 42.464 14.04 42.4639 14.04C42.4638 14.04 42.4637 14.04 42.4636 14.04C42.4635 14.04 42.4634 14.04 42.4633 14.04C42.4632 14.04 42.4631 14.04 42.463 14.04C42.4629 14.04 42.4627 14.04 42.4626 14.04C42.4625 14.04 42.4624 14.04 42.4623 14.04C42.4622 14.04 42.4621 14.04 42.462 14.04C42.4619 14.04 42.4618 14.04 42.4617 14.04C42.4616 14.04 42.4614 14.04 42.4613 14.04C42.4612 14.04 42.4611 14.04 42.461 14.04C42.4609 14.04 42.4608 14.04 42.4607 14.04C42.4606 14.04 42.4605 14.04 42.4604 14.04C42.4602 14.04 42.4601 14.04 42.46 14.04C42.4599 14.04 42.4598 14.04 42.4597 14.04C42.4596 14.04 42.4595 14.04 42.4594 14.04C42.4593 14.04 42.4592 14.04 42.459 14.04C42.4589 14.04 42.4588 14.04 42.4587 14.04C42.4586 14.04 42.4585 14.04 42.4584 14.04C42.4583 14.04 42.4582 14.04 42.4581 14.04C42.458 14.04 42.4578 14.04 42.4577 14.04C42.4576 14.04 42.4575 14.04 42.4574 14.04C42.4573 14.04 42.4572 14.04 42.4571 14.04C42.457 14.04 42.4569 14.04 42.4567 14.04C42.4566 14.04 42.4565 14.04 42.4564 14.04C42.4563 14.04 42.4562 14.04 42.4561 14.04C42.456 14.04 42.4559 14.04 42.4558 14.04C42.4556 14.04 42.4555 14.04 42.4554 14.04C42.4553 14.04 42.4552 14.04 42.4551 14.04C42.455 14.04 42.4549 14.04 42.4548 14.04C42.4547 14.04 42.4545 14.04 42.4544 14.04C42.4543 14.04 42.4542 14.04 42.4541 14.04C42.454 14.04 42.4539 14.04 42.4538 14.04C42.4537 14.04 42.4536 14.04 42.4534 14.04C42.4533 14.04 42.4532 14.04 42.4531 14.04C42.453 14.04 42.4529 14.04 42.4528 14.04C42.4527 14.04 42.4526 14.04 42.4524 14.04C42.4523 14.04 42.4522 14.04 42.4521 14.04C42.452 14.04 42.4519 14.04 42.4518 14.04C42.4517 14.04 42.4516 14.04 42.4515 14.04C42.4513 14.04 42.4512 14.04 42.4511 14.04C42.451 14.04 42.4509 14.04 42.4508 14.04C42.4507 14.04 42.4506 14.04 42.4505 14.04C42.4503 14.04 42.4502 14.04 42.4501 14.04C42.45 14.04 42.4499 14.04 42.4498 14.04C42.4497 14.04 42.4496 14.04 42.4495 14.04C42.4493 14.04 42.4492 14.04 42.4491 14.04C42.449 14.04 42.4489 14.04 42.4488 14.04C42.4487 14.04 42.4486 14.04 42.4485 14.04C42.4483 14.04 42.4482 14.04 42.4481 14.04C42.448 14.04 42.4479 14.04 42.4478 14.04C42.4477 14.04 42.4476 14.04 42.4475 14.04C42.4473 14.04 42.4472 14.04 42.4471 14.04C42.447 14.04 42.4469 14.04 42.4468 14.04C42.4467 14.04 42.4466 14.04 42.4464 14.04C42.4463 14.04 42.4462 14.04 42.4461 14.04C42.446 14.04 42.4459 14.04 42.4458 14.04C42.4457 14.04 42.4456 14.04 42.4454 14.04C42.4453 14.04 42.4452 14.04 42.4451 14.04C42.445 14.04 42.4449 14.04 42.4448 14.04C42.4447 14.04 42.4445 14.04 42.4444 14.04C42.4443 14.04 42.4442 14.04 42.4441 14.04C42.444 14.04 42.4439 14.04 42.4438 14.04C42.4436 14.04 42.4435 14.04 42.4434 14.04C42.4433 14.04 42.4432 14.04 42.4431 14.04C42.443 14.04 42.4429 14.04 42.4427 14.04C42.4426 14.04 42.4425 14.04 42.4424 14.04C42.4423 14.04 42.4422 14.04 42.4421 14.04C42.442 14.04 42.4419 14.04 42.4417 14.04C42.4416 14.04 42.4415 14.04 42.4414 14.04C42.4413 14.04 42.4412 14.04 42.4411 14.04C42.441 14.04 42.4408 14.04 42.4407 14.04C42.4406 14.04 42.4405 14.04 42.4404 14.04C42.4403 14.04 42.4402 14.04 42.44 14.04C42.4399 14.04 42.4398 14.04 42.4397 14.04C42.4396 14.04 42.4395 14.04 42.4394 14.04C42.4393 14.04 42.4391 14.04 42.439 14.04C42.4389 14.04 42.4388 14.04 42.4387 14.04C42.4386 14.04 42.4385 14.04 42.4384 14.04C42.4382 14.04 42.4381 14.04 42.438 14.04C42.4379 14.04 42.4378 14.04 42.4377 14.04C42.4376 14.04 42.4375 14.04 42.4373 14.04C42.4372 14.04 42.4371 14.04 42.437 14.04C42.4369 14.04 42.4368 14.04 42.4367 14.04C42.4365 14.04 42.4364 14.04 42.4363 14.04C42.4362 14.04 42.4361 14.04 42.436 14.04C42.4359 14.04 42.4358 14.04 42.4356 14.04C42.4355 14.04 42.4354 14.04 42.4353 14.04C42.4352 14.04 42.4351 14.04 42.435 14.04C42.4348 14.04 42.4347 14.04 42.4346 14.04C42.4345 14.04 42.4344 14.04 42.4343 14.04C42.4342 14.04 42.4341 14.04 42.4339 14.04C42.4338 14.04 42.4337 14.04 42.4336 14.04C42.4335 14.04 42.4334 14.04 42.4333 14.04C42.4331 14.04 42.433 14.04 42.4329 14.04C42.4328 14.04 42.4327 14.04 42.4326 14.04C42.4325 14.04 42.4323 14.04 42.4322 14.04C42.4321 14.04 42.432 14.04 42.4319 14.04C42.4318 14.04 42.4317 14.04 42.4315 14.04C42.4314 14.04 42.4313 14.04 42.4312 14.04C42.4311 14.04 42.431 14.04 42.4309 14.04C42.4308 14.04 42.4306 14.04 42.4305 14.04C42.4304 14.04 42.4303 14.04 42.4302 14.04C42.4301 14.04 42.43 14.04 42.4298 14.04C42.4297 14.04 42.4296 14.04 42.4295 14.04C42.4294 14.04 42.4293 14.04 42.4292 14.04C42.429 14.04 42.4289 14.04 42.4288 14.04C42.4287 14.04 42.4286 14.04 42.4285 14.04C42.4284 14.04 42.4282 14.04 42.4281 14.04C42.428 14.04 42.4279 14.04 42.4278 14.04C42.4277 14.04 42.4276 14.04 42.4274 14.04C42.4273 14.04 42.4272 14.04 42.4271 14.04C42.427 14.04 42.4269 14.04 42.4268 14.04C42.4266 14.04 42.4265 14.04 42.4264 14.04C42.4263 14.04 42.4262 14.04 42.4261 14.04C42.4259 14.04 42.4258 14.04 42.4257 14.04C42.4256 14.04 42.4255 14.04 42.4254 14.04C42.4253 14.04 42.4251 14.04 42.425 14.04C42.4249 14.04 42.4248 14.04 42.4247 14.04C42.4246 14.04 42.4245 14.04 42.4243 14.04C42.4242 14.04 42.4241 14.04 42.424 14.04C42.4239 14.04 42.4238 14.04 42.4237 14.04C42.4235 14.04 42.4234 14.04 42.4233 14.04C42.4232 14.04 42.4231 14.04 42.423 14.04C42.4229 14.04 42.4227 14.04 42.4226 14.04C42.4225 14.04 42.4224 14.04 42.4223 14.04C42.4222 14.04 42.422 14.04 42.4219 14.04C42.4218 14.04 42.4217 14.04 42.4216 14.04C42.4215 14.04 42.4214 14.04 42.4212 14.04C42.4211 14.04 42.421 14.04 42.4209 14.04C42.4208 14.04 42.4207 14.04 42.4205 14.04C42.4204 14.04 42.4203 14.04 42.4202 14.04C42.4201 14.04 42.42 14.04 42.4199 14.04C42.4197 14.04 42.4196 14.04 42.4195 14.04C42.4194 14.04 42.4193 14.04 42.4192 14.04C42.4191 14.04 42.4189 14.04 42.4188 14.04C42.4187 14.04 42.4186 14.04 42.4185 14.04C42.4184 14.04 42.4182 14.04 42.4181 14.04C42.418 14.04 42.4179 14.04 42.4178 14.04C42.4177 14.04 42.4176 14.04 42.4174 14.04C42.4173 14.04 42.4172 14.04 42.4171 14.04C42.417 14.04 42.4169 14.04 42.4167 14.04C42.4166 14.04 42.4165 14.04 42.4164 14.04C42.4163 14.04 42.4162 14.04 42.416 14.04C42.4159 14.04 42.4158 14.04 42.4157 14.04C42.4156 14.04 42.4155 14.04 42.4154 14.04C42.4152 14.04 42.4151 14.04 42.415 14.04C42.4149 14.04 42.4148 14.04 42.4147 14.04C42.4145 14.04 42.4144 14.04 42.4143 14.04C42.4142 14.04 42.4141 14.04 42.414 14.04C42.4139 14.04 42.4137 14.04 42.4136 14.04C42.4135 14.04 42.4134 14.04 42.4133 14.04C42.4132 14.04 42.413 14.04 42.4129 14.04C42.4128 14.04 42.4127 14.04 42.4126 14.04C42.4125 14.04 42.4123 14.04 42.4122 14.04C42.4121 14.04 42.412 14.04 42.4119 14.04C42.4118 14.04 42.4116 14.04 42.4115 14.04C42.4114 14.04 42.4113 14.04 42.4112 14.04C42.4111 14.04 42.411 14.04 42.4108 14.04C42.4107 14.04 42.4106 14.04 42.4105 14.04C42.4104 14.04 42.4103 14.04 42.4101 14.04C42.41 14.04 42.4099 14.04 42.4098 14.04C42.4097 14.04 42.4096 14.04 42.4094 14.04C42.4093 14.04 42.4092 14.04 42.4091 14.04C42.409 14.04 42.4089 14.04 42.4087 14.04C42.4086 14.04 42.4085 14.04 42.4084 14.04C42.4083 14.04 42.4082 14.04 42.408 14.04C42.4079 14.04 42.4078 14.04 42.4077 14.04C42.4076 14.04 42.4075 14.04 42.4074 14.04C42.4072 14.04 42.4071 14.04 42.407 14.04C42.4069 14.04 42.4068 14.04 42.4067 14.04C42.4065 14.04 42.4064 14.04 42.4063 14.04C42.4062 14.04 42.4061 14.04 42.406 14.04C42.4058 14.04 42.4057 14.04 42.4056 14.04C42.4055 14.04 42.4054 14.04 42.4053 14.04C42.4051 14.04 42.405 14.04 42.4049 14.04C42.4048 14.04 42.4047 14.04 42.4046 14.04C42.4044 14.04 42.4043 14.04 42.4042 14.04C42.4041 14.04 42.404 14.04 42.4039 14.04C42.4037 14.04 42.4036 14.04 42.4035 14.04C42.4034 14.04 42.4033 14.04 42.4032 14.04C42.403 14.04 42.4029 14.04 42.4028 14.04C42.4027 14.04 42.4026 14.04 42.4025 14.04C42.4023 14.04 42.4022 14.04 42.4021 14.04C42.402 14.04 42.4019 14.04 42.4018 14.04C42.4016 14.04 42.4015 14.04 42.4014 14.04C42.4013 14.04 42.4012 14.04 42.4011 14.04C42.4009 14.04 42.4008 14.04 42.4007 14.04C42.4006 14.04 42.4005 14.04 42.4004 14.04C42.4002 14.04 42.4001 14.04 42.4 14.04C42.3999 14.04 42.3998 14.04 42.3997 14.04C42.3995 14.04 42.3994 14.04 42.3993 14.04C42.3992 14.04 42.3991 14.04 42.399 14.04C42.3988 14.04 42.3987 14.04 42.3986 14.04C42.3985 14.04 42.3984 14.04 42.3983 14.04C42.3981 14.04 42.398 14.04 42.3979 14.04C42.3978 14.04 42.3977 14.04 42.3976 14.04C42.3974 14.04 42.3973 14.04 42.3972 14.04C42.3971 14.04 42.397 14.04 42.3969 14.04C42.3967 14.04 42.3966 14.04 42.3965 14.04C42.3964 14.04 42.3963 14.04 42.3962 14.04C42.396 14.04 42.3959 14.04 42.3958 14.04C42.3957 14.04 42.3956 14.04 42.3955 14.04C42.3953 14.04 42.3952 14.04 42.3951 14.04C42.395 14.04 42.3949 14.04 42.3948 14.04C42.3946 14.04 42.3945 14.04 42.3944 14.04C42.3943 14.04 42.3942 14.04 42.3941 14.04C42.3939 14.04 42.3938 14.04 42.3937 14.04C42.3936 14.04 42.3935 14.04 42.3934 14.04C42.3932 14.04 42.3931 14.04 42.393 14.04C42.3929 14.04 42.3928 14.04 42.3926 14.04C42.3925 14.04 42.3924 14.04 42.3923 14.04C42.3922 14.04 42.3921 14.04 42.3919 14.04C42.3918 14.04 42.3917 14.04 42.3916 14.04C42.3915 14.04 42.3914 14.04 42.3912 14.04C42.3911 14.04 42.391 14.04 42.3909 14.04C42.3908 14.04 42.3907 14.04 42.3905 14.04C42.3904 14.04 42.3903 14.04 42.3902 14.04C42.3901 14.04 42.39 14.04 42.3898 14.04C42.3897 14.04 42.3896 14.04 42.3895 14.04C42.3894 14.04 42.3893 14.04 42.3891 14.04C42.389 14.04 42.3889 14.04 42.3888 14.04C42.3887 14.04 42.3886 14.04 42.3884 14.04C42.3883 14.04 42.3882 14.04 42.3881 14.04C42.388 14.04 42.3879 14.04 42.3877 14.04C42.3876 14.04 42.3875 14.04 42.3874 14.04C42.3873 14.04 42.3871 14.04 42.387 14.04C42.3869 14.04 42.3868 14.04 42.3867 14.04C42.3866 14.04 42.3864 14.04 42.3863 14.04C42.3862 14.04 42.3861 14.04 42.386 14.04C42.3859 14.04 42.3857 14.04 42.3856 14.04C42.3855 14.04 42.3854 14.04 42.3853 14.04C42.3852 14.04 42.385 14.04 42.3849 14.04C42.3848 14.04 42.3847 14.04 42.3846 14.04C42.3845 14.04 42.3843 14.04 42.3842 14.04C42.3841 14.04 42.384 14.04 42.3839 14.04C42.3838 14.04 42.3836 14.04 42.3835 14.04C42.3834 14.04 42.3833 14.04 42.3832 14.04C42.383 14.04 42.3829 14.04 42.3828 14.04C42.3827 14.04 42.3826 14.04 42.3825 14.04C42.3823 14.04 42.3822 14.04 42.3821 14.04C42.382 14.04 42.3819 14.04 42.3818 14.04C42.3816 14.04 42.3815 14.04 42.3814 14.04C42.3813 14.04 42.3812 14.04 42.3811 14.04C42.3809 14.04 42.3808 14.04 42.3807 14.04C42.3806 14.04 42.3805 14.04 42.3804 14.04C42.3802 14.04 42.3801 14.04 42.38 14.04V16.04C42.3801 16.04 42.3802 16.04 42.3804 16.04C42.3805 16.04 42.3806 16.04 42.3807 16.04C42.3808 16.04 42.3809 16.04 42.3811 16.04C42.3812 16.04 42.3813 16.04 42.3814 16.04C42.3815 16.04 42.3816 16.04 42.3818 16.04C42.3819 16.04 42.382 16.04 42.3821 16.04C42.3822 16.04 42.3823 16.04 42.3825 16.04C42.3826 16.04 42.3827 16.04 42.3828 16.04C42.3829 16.04 42.383 16.04 42.3832 16.04C42.3833 16.04 42.3834 16.04 42.3835 16.04C42.3836 16.04 42.3838 16.04 42.3839 16.04C42.384 16.04 42.3841 16.04 42.3842 16.04C42.3843 16.04 42.3845 16.04 42.3846 16.04C42.3847 16.04 42.3848 16.04 42.3849 16.04C42.385 16.04 42.3852 16.04 42.3853 16.04C42.3854 16.04 42.3855 16.04 42.3856 16.04C42.3857 16.04 42.3859 16.04 42.386 16.04C42.3861 16.04 42.3862 16.04 42.3863 16.04C42.3864 16.04 42.3866 16.04 42.3867 16.04C42.3868 16.04 42.3869 16.04 42.387 16.04C42.3871 16.04 42.3873 16.04 42.3874 16.04C42.3875 16.04 42.3876 16.04 42.3877 16.04C42.3879 16.04 42.388 16.04 42.3881 16.04C42.3882 16.04 42.3883 16.04 42.3884 16.04C42.3886 16.04 42.3887 16.04 42.3888 16.04C42.3889 16.04 42.389 16.04 42.3891 16.04C42.3893 16.04 42.3894 16.04 42.3895 16.04C42.3896 16.04 42.3897 16.04 42.3898 16.04C42.39 16.04 42.3901 16.04 42.3902 16.04C42.3903 16.04 42.3904 16.04 42.3905 16.04C42.3907 16.04 42.3908 16.04 42.3909 16.04C42.391 16.04 42.3911 16.04 42.3912 16.04C42.3914 16.04 42.3915 16.04 42.3916 16.04C42.3917 16.04 42.3918 16.04 42.3919 16.04C42.3921 16.04 42.3922 16.04 42.3923 16.04C42.3924 16.04 42.3925 16.04 42.3926 16.04C42.3928 16.04 42.3929 16.04 42.393 16.04C42.3931 16.04 42.3932 16.04 42.3934 16.04C42.3935 16.04 42.3936 16.04 42.3937 16.04C42.3938 16.04 42.3939 16.04 42.3941 16.04C42.3942 16.04 42.3943 16.04 42.3944 16.04C42.3945 16.04 42.3946 16.04 42.3948 16.04C42.3949 16.04 42.395 16.04 42.3951 16.04C42.3952 16.04 42.3953 16.04 42.3955 16.04C42.3956 16.04 42.3957 16.04 42.3958 16.04C42.3959 16.04 42.396 16.04 42.3962 16.04C42.3963 16.04 42.3964 16.04 42.3965 16.04C42.3966 16.04 42.3967 16.04 42.3969 16.04C42.397 16.04 42.3971 16.04 42.3972 16.04C42.3973 16.04 42.3974 16.04 42.3976 16.04C42.3977 16.04 42.3978 16.04 42.3979 16.04C42.398 16.04 42.3981 16.04 42.3983 16.04C42.3984 16.04 42.3985 16.04 42.3986 16.04C42.3987 16.04 42.3988 16.04 42.399 16.04C42.3991 16.04 42.3992 16.04 42.3993 16.04C42.3994 16.04 42.3995 16.04 42.3997 16.04C42.3998 16.04 42.3999 16.04 42.4 16.04C42.4001 16.04 42.4002 16.04 42.4004 16.04C42.4005 16.04 42.4006 16.04 42.4007 16.04C42.4008 16.04 42.4009 16.04 42.4011 16.04C42.4012 16.04 42.4013 16.04 42.4014 16.04C42.4015 16.04 42.4016 16.04 42.4018 16.04C42.4019 16.04 42.402 16.04 42.4021 16.04C42.4022 16.04 42.4023 16.04 42.4025 16.04C42.4026 16.04 42.4027 16.04 42.4028 16.04C42.4029 16.04 42.403 16.04 42.4032 16.04C42.4033 16.04 42.4034 16.04 42.4035 16.04C42.4036 16.04 42.4037 16.04 42.4039 16.04C42.404 16.04 42.4041 16.04 42.4042 16.04C42.4043 16.04 42.4044 16.04 42.4046 16.04C42.4047 16.04 42.4048 16.04 42.4049 16.04C42.405 16.04 42.4051 16.04 42.4053 16.04C42.4054 16.04 42.4055 16.04 42.4056 16.04C42.4057 16.04 42.4058 16.04 42.406 16.04C42.4061 16.04 42.4062 16.04 42.4063 16.04C42.4064 16.04 42.4065 16.04 42.4067 16.04C42.4068 16.04 42.4069 16.04 42.407 16.04C42.4071 16.04 42.4072 16.04 42.4074 16.04C42.4075 16.04 42.4076 16.04 42.4077 16.04C42.4078 16.04 42.4079 16.04 42.408 16.04C42.4082 16.04 42.4083 16.04 42.4084 16.04C42.4085 16.04 42.4086 16.04 42.4087 16.04C42.4089 16.04 42.409 16.04 42.4091 16.04C42.4092 16.04 42.4093 16.04 42.4094 16.04C42.4096 16.04 42.4097 16.04 42.4098 16.04C42.4099 16.04 42.41 16.04 42.4101 16.04C42.4103 16.04 42.4104 16.04 42.4105 16.04C42.4106 16.04 42.4107 16.04 42.4108 16.04C42.411 16.04 42.4111 16.04 42.4112 16.04C42.4113 16.04 42.4114 16.04 42.4115 16.04C42.4116 16.04 42.4118 16.04 42.4119 16.04C42.412 16.04 42.4121 16.04 42.4122 16.04C42.4123 16.04 42.4125 16.04 42.4126 16.04C42.4127 16.04 42.4128 16.04 42.4129 16.04C42.413 16.04 42.4132 16.04 42.4133 16.04C42.4134 16.04 42.4135 16.04 42.4136 16.04C42.4137 16.04 42.4139 16.04 42.414 16.04C42.4141 16.04 42.4142 16.04 42.4143 16.04C42.4144 16.04 42.4145 16.04 42.4147 16.04C42.4148 16.04 42.4149 16.04 42.415 16.04C42.4151 16.04 42.4152 16.04 42.4154 16.04C42.4155 16.04 42.4156 16.04 42.4157 16.04C42.4158 16.04 42.4159 16.04 42.416 16.04C42.4162 16.04 42.4163 16.04 42.4164 16.04C42.4165 16.04 42.4166 16.04 42.4167 16.04C42.4169 16.04 42.417 16.04 42.4171 16.04C42.4172 16.04 42.4173 16.04 42.4174 16.04C42.4176 16.04 42.4177 16.04 42.4178 16.04C42.4179 16.04 42.418 16.04 42.4181 16.04C42.4182 16.04 42.4184 16.04 42.4185 16.04C42.4186 16.04 42.4187 16.04 42.4188 16.04C42.4189 16.04 42.4191 16.04 42.4192 16.04C42.4193 16.04 42.4194 16.04 42.4195 16.04C42.4196 16.04 42.4197 16.04 42.4199 16.04C42.42 16.04 42.4201 16.04 42.4202 16.04C42.4203 16.04 42.4204 16.04 42.4205 16.04C42.4207 16.04 42.4208 16.04 42.4209 16.04C42.421 16.04 42.4211 16.04 42.4212 16.04C42.4214 16.04 42.4215 16.04 42.4216 16.04C42.4217 16.04 42.4218 16.04 42.4219 16.04C42.422 16.04 42.4222 16.04 42.4223 16.04C42.4224 16.04 42.4225 16.04 42.4226 16.04C42.4227 16.04 42.4229 16.04 42.423 16.04C42.4231 16.04 42.4232 16.04 42.4233 16.04C42.4234 16.04 42.4235 16.04 42.4237 16.04C42.4238 16.04 42.4239 16.04 42.424 16.04C42.4241 16.04 42.4242 16.04 42.4243 16.04C42.4245 16.04 42.4246 16.04 42.4247 16.04C42.4248 16.04 42.4249 16.04 42.425 16.04C42.4251 16.04 42.4253 16.04 42.4254 16.04C42.4255 16.04 42.4256 16.04 42.4257 16.04C42.4258 16.04 42.4259 16.04 42.4261 16.04C42.4262 16.04 42.4263 16.04 42.4264 16.04C42.4265 16.04 42.4266 16.04 42.4268 16.04C42.4269 16.04 42.427 16.04 42.4271 16.04C42.4272 16.04 42.4273 16.04 42.4274 16.04C42.4276 16.04 42.4277 16.04 42.4278 16.04C42.4279 16.04 42.428 16.04 42.4281 16.04C42.4282 16.04 42.4284 16.04 42.4285 16.04C42.4286 16.04 42.4287 16.04 42.4288 16.04C42.4289 16.04 42.429 16.04 42.4292 16.04C42.4293 16.04 42.4294 16.04 42.4295 16.04C42.4296 16.04 42.4297 16.04 42.4298 16.04C42.43 16.04 42.4301 16.04 42.4302 16.04C42.4303 16.04 42.4304 16.04 42.4305 16.04C42.4306 16.04 42.4308 16.04 42.4309 16.04C42.431 16.04 42.4311 16.04 42.4312 16.04C42.4313 16.04 42.4314 16.04 42.4315 16.04C42.4317 16.04 42.4318 16.04 42.4319 16.04C42.432 16.04 42.4321 16.04 42.4322 16.04C42.4323 16.04 42.4325 16.04 42.4326 16.04C42.4327 16.04 42.4328 16.04 42.4329 16.04C42.433 16.04 42.4331 16.04 42.4333 16.04C42.4334 16.04 42.4335 16.04 42.4336 16.04C42.4337 16.04 42.4338 16.04 42.4339 16.04C42.4341 16.04 42.4342 16.04 42.4343 16.04C42.4344 16.04 42.4345 16.04 42.4346 16.04C42.4347 16.04 42.4348 16.04 42.435 16.04C42.4351 16.04 42.4352 16.04 42.4353 16.04C42.4354 16.04 42.4355 16.04 42.4356 16.04C42.4358 16.04 42.4359 16.04 42.436 16.04C42.4361 16.04 42.4362 16.04 42.4363 16.04C42.4364 16.04 42.4365 16.04 42.4367 16.04C42.4368 16.04 42.4369 16.04 42.437 16.04C42.4371 16.04 42.4372 16.04 42.4373 16.04C42.4375 16.04 42.4376 16.04 42.4377 16.04C42.4378 16.04 42.4379 16.04 42.438 16.04C42.4381 16.04 42.4382 16.04 42.4384 16.04C42.4385 16.04 42.4386 16.04 42.4387 16.04C42.4388 16.04 42.4389 16.04 42.439 16.04C42.4391 16.04 42.4393 16.04 42.4394 16.04C42.4395 16.04 42.4396 16.04 42.4397 16.04C42.4398 16.04 42.4399 16.04 42.44 16.04C42.4402 16.04 42.4403 16.04 42.4404 16.04C42.4405 16.04 42.4406 16.04 42.4407 16.04C42.4408 16.04 42.441 16.04 42.4411 16.04C42.4412 16.04 42.4413 16.04 42.4414 16.04C42.4415 16.04 42.4416 16.04 42.4417 16.04C42.4419 16.04 42.442 16.04 42.4421 16.04C42.4422 16.04 42.4423 16.04 42.4424 16.04C42.4425 16.04 42.4426 16.04 42.4427 16.04C42.4429 16.04 42.443 16.04 42.4431 16.04C42.4432 16.04 42.4433 16.04 42.4434 16.04C42.4435 16.04 42.4436 16.04 42.4438 16.04C42.4439 16.04 42.444 16.04 42.4441 16.04C42.4442 16.04 42.4443 16.04 42.4444 16.04C42.4445 16.04 42.4447 16.04 42.4448 16.04C42.4449 16.04 42.445 16.04 42.4451 16.04C42.4452 16.04 42.4453 16.04 42.4454 16.04C42.4456 16.04 42.4457 16.04 42.4458 16.04C42.4459 16.04 42.446 16.04 42.4461 16.04C42.4462 16.04 42.4463 16.04 42.4464 16.04C42.4466 16.04 42.4467 16.04 42.4468 16.04C42.4469 16.04 42.447 16.04 42.4471 16.04C42.4472 16.04 42.4473 16.04 42.4475 16.04C42.4476 16.04 42.4477 16.04 42.4478 16.04C42.4479 16.04 42.448 16.04 42.4481 16.04C42.4482 16.04 42.4483 16.04 42.4485 16.04C42.4486 16.04 42.4487 16.04 42.4488 16.04C42.4489 16.04 42.449 16.04 42.4491 16.04C42.4492 16.04 42.4493 16.04 42.4495 16.04C42.4496 16.04 42.4497 16.04 42.4498 16.04C42.4499 16.04 42.45 16.04 42.4501 16.04C42.4502 16.04 42.4503 16.04 42.4505 16.04C42.4506 16.04 42.4507 16.04 42.4508 16.04C42.4509 16.04 42.451 16.04 42.4511 16.04C42.4512 16.04 42.4513 16.04 42.4515 16.04C42.4516 16.04 42.4517 16.04 42.4518 16.04C42.4519 16.04 42.452 16.04 42.4521 16.04C42.4522 16.04 42.4523 16.04 42.4524 16.04C42.4526 16.04 42.4527 16.04 42.4528 16.04C42.4529 16.04 42.453 16.04 42.4531 16.04C42.4532 16.04 42.4533 16.04 42.4534 16.04C42.4536 16.04 42.4537 16.04 42.4538 16.04C42.4539 16.04 42.454 16.04 42.4541 16.04C42.4542 16.04 42.4543 16.04 42.4544 16.04C42.4545 16.04 42.4547 16.04 42.4548 16.04C42.4549 16.04 42.455 16.04 42.4551 16.04C42.4552 16.04 42.4553 16.04 42.4554 16.04C42.4555 16.04 42.4556 16.04 42.4558 16.04C42.4559 16.04 42.456 16.04 42.4561 16.04C42.4562 16.04 42.4563 16.04 42.4564 16.04C42.4565 16.04 42.4566 16.04 42.4567 16.04C42.4569 16.04 42.457 16.04 42.4571 16.04C42.4572 16.04 42.4573 16.04 42.4574 16.04C42.4575 16.04 42.4576 16.04 42.4577 16.04C42.4578 16.04 42.458 16.04 42.4581 16.04C42.4582 16.04 42.4583 16.04 42.4584 16.04C42.4585 16.04 42.4586 16.04 42.4587 16.04C42.4588 16.04 42.4589 16.04 42.459 16.04C42.4592 16.04 42.4593 16.04 42.4594 16.04C42.4595 16.04 42.4596 16.04 42.4597 16.04C42.4598 16.04 42.4599 16.04 42.46 16.04C42.4601 16.04 42.4602 16.04 42.4604 16.04C42.4605 16.04 42.4606 16.04 42.4607 16.04C42.4608 16.04 42.4609 16.04 42.461 16.04C42.4611 16.04 42.4612 16.04 42.4613 16.04C42.4614 16.04 42.4616 16.04 42.4617 16.04C42.4618 16.04 42.4619 16.04 42.462 16.04C42.4621 16.04 42.4622 16.04 42.4623 16.04C42.4624 16.04 42.4625 16.04 42.4626 16.04C42.4627 16.04 42.4629 16.04 42.463 16.04C42.4631 16.04 42.4632 16.04 42.4633 16.04C42.4634 16.04 42.4635 16.04 42.4636 16.04C42.4637 16.04 42.4638 16.04 42.4639 16.04C42.464 16.04 42.4642 16.04 42.4643 16.04C42.4644 16.04 42.4645 16.04 42.4646 16.04C42.4647 16.04 42.4648 16.04 42.4649 16.04C42.465 16.04 42.4651 16.04 42.4652 16.04C42.4653 16.04 42.4655 16.04 42.4656 16.04C42.4657 16.04 42.4658 16.04 42.4659 16.04C42.466 16.04 42.4661 16.04 42.4662 16.04C42.4663 16.04 42.4664 16.04 42.4665 16.04C42.4666 16.04 42.4667 16.04 42.4669 16.04C42.467 16.04 42.4671 16.04 42.4672 16.04C42.4673 16.04 42.4674 16.04 42.4675 16.04C42.4676 16.04 42.4677 16.04 42.4678 16.04C42.4679 16.04 42.468 16.04 42.4681 16.04C42.4683 16.04 42.4684 16.04 42.4685 16.04C42.4686 16.04 42.4687 16.04 42.4688 16.04C42.4689 16.04 42.469 16.04 42.4691 16.04C42.4692 16.04 42.4693 16.04 42.4694 16.04C42.4695 16.04 42.4696 16.04 42.4698 16.04C42.4699 16.04 42.47 16.04 42.4701 16.04C42.4702 16.04 42.4703 16.04 42.4704 16.04C42.4705 16.04 42.4706 16.04 42.4707 16.04C42.4708 16.04 42.4709 16.04 42.471 16.04C42.4711 16.04 42.4712 16.04 42.4714 16.04C42.4715 16.04 42.4716 16.04 42.4717 16.04C42.4718 16.04 42.4719 16.04 42.472 16.04C42.4721 16.04 42.4722 16.04 42.4723 16.04C42.4724 16.04 42.4725 16.04 42.4726 16.04C42.4727 16.04 42.4728 16.04 42.4729 16.04C42.4731 16.04 42.4732 16.04 42.4733 16.04C42.4734 16.04 42.4735 16.04 42.4736 16.04C42.4737 16.04 42.4738 16.04 42.4739 16.04C42.474 16.04 42.4741 16.04 42.4742 16.04C42.4743 16.04 42.4744 16.04 42.4745 16.04C42.4746 16.04 42.4747 16.04 42.4748 16.04C42.475 16.04 42.4751 16.04 42.4752 16.04C42.4753 16.04 42.4754 16.04 42.4755 16.04C42.4756 16.04 42.4757 16.04 42.4758 16.04C42.4759 16.04 42.476 16.04 42.4761 16.04C42.4762 16.04 42.4763 16.04 42.4764 16.04C42.4765 16.04 42.4766 16.04 42.4767 16.04C42.4769 16.04 42.477 16.04 42.4771 16.04C42.4772 16.04 42.4773 16.04 42.4774 16.04C42.4775 16.04 42.4776 16.04 42.4777 16.04C42.4778 16.04 42.4779 16.04 42.478 16.04C42.4781 16.04 42.4782 16.04 42.4783 16.04C42.4784 16.04 42.4785 16.04 42.4786 16.04C42.4787 16.04 42.4788 16.04 42.4789 16.04C42.4791 16.04 42.4792 16.04 42.4793 16.04C42.4794 16.04 42.4795 16.04 42.4796 16.04C42.4797 16.04 42.4798 16.04 42.4799 16.04C42.48 16.04 42.4801 16.04 42.4802 16.04C42.4803 16.04 42.4804 16.04 42.4805 16.04C42.4806 16.04 42.4807 16.04 42.4808 16.04C42.4809 16.04 42.481 16.04 42.4811 16.04C42.4812 16.04 42.4813 16.04 42.4814 16.04C42.4815 16.04 42.4817 16.04 42.4818 16.04C42.4819 16.04 42.482 16.04 42.4821 16.04C42.4822 16.04 42.4823 16.04 42.4824 16.04C42.4825 16.04 42.4826 16.04 42.4827 16.04C42.4828 16.04 42.4829 16.04 42.483 16.04C42.4831 16.04 42.4832 16.04 42.4833 16.04C42.4834 16.04 42.4835 16.04 42.4836 16.04C42.4837 16.04 42.4838 16.04 42.4839 16.04C42.484 16.04 42.4841 16.04 42.4842 16.04C42.4843 16.04 42.4844 16.04 42.4845 16.04C42.4846 16.04 42.4848 16.04 42.4849 16.04C42.485 16.04 42.4851 16.04 42.4852 16.04C42.4853 16.04 42.4854 16.04 42.4855 16.04C42.4856 16.04 42.4857 16.04 42.4858 16.04C42.4859 16.04 42.486 16.04 42.4861 16.04C42.4862 16.04 42.4863 16.04 42.4864 16.04C42.4865 16.04 42.4866 16.04 42.4867 16.04C42.4868 16.04 42.4869 16.04 42.487 16.04C42.4871 16.04 42.4872 16.04 42.4873 16.04C42.4874 16.04 42.4875 16.04 42.4876 16.04C42.4877 16.04 42.4878 16.04 42.4879 16.04C42.488 16.04 42.4881 16.04 42.4882 16.04C42.4883 16.04 42.4884 16.04 42.4885 16.04C42.4886 16.04 42.4887 16.04 42.4888 16.04C42.4889 16.04 42.489 16.04 42.4891 16.04C42.4892 16.04 42.4893 16.04 42.4894 16.04C42.4895 16.04 42.4896 16.04 42.4898 16.04C42.4899 16.04 42.49 16.04 42.4901 16.04C42.4902 16.04 42.4903 16.04 42.4904 16.04C42.4905 16.04 42.4906 16.04 42.4907 16.04C42.4908 16.04 42.4909 16.04 42.491 16.04C42.4911 16.04 42.4912 16.04 42.4913 16.04C42.4914 16.04 42.4915 16.04 42.4916 16.04C42.4917 16.04 42.4918 16.04 42.4919 16.04C42.492 16.04 42.4921 16.04 42.4922 16.04C42.4923 16.04 42.4924 16.04 42.4925 16.04C42.4926 16.04 42.4927 16.04 42.4928 16.04C42.4929 16.04 42.493 16.04 42.4931 16.04C42.4932 16.04 42.4933 16.04 42.4934 16.04C42.4935 16.04 42.4936 16.04 42.4937 16.04C42.4938 16.04 42.4939 16.04 42.494 16.04C42.4941 16.04 42.4942 16.04 42.4943 16.04C42.4944 16.04 42.4945 16.04 42.4946 16.04C42.4947 16.04 42.4948 16.04 42.4949 16.04C42.495 16.04 42.4951 16.04 42.4952 16.04C42.4953 16.04 42.4954 16.04 42.4955 16.04C42.4956 16.04 42.4957 16.04 42.4958 16.04C42.4959 16.04 42.496 16.04 42.4961 16.04C42.4962 16.04 42.4963 16.04 42.4964 16.04C42.4965 16.04 42.4966 16.04 42.4967 16.04C42.4968 16.04 42.4969 16.04 42.497 16.04C42.4971 16.04 42.4972 16.04 42.4973 16.04C42.4973 16.04 42.4974 16.04 42.4975 16.04C42.4976 16.04 42.4977 16.04 42.4978 16.04C42.4979 16.04 42.498 16.04 42.4981 16.04C42.4982 16.04 42.4983 16.04 42.4984 16.04C42.4985 16.04 42.4986 16.04 42.4987 16.04C42.4988 16.04 42.4989 16.04 42.499 16.04C42.4991 16.04 42.4992 16.04 42.4993 16.04C42.4994 16.04 42.4995 16.04 42.4996 16.04C42.4997 16.04 42.4998 16.04 42.4999 16.04C42.5 16.04 42.5001 16.04 42.5002 16.04C42.5003 16.04 42.5004 16.04 42.5005 16.04C42.5006 16.04 42.5007 16.04 42.5008 16.04C42.5009 16.04 42.501 16.04 42.5011 16.04C42.5012 16.04 42.5013 16.04 42.5014 16.04C42.5015 16.04 42.5016 16.04 42.5017 16.04C42.5018 16.04 42.5019 16.04 42.5019 16.04C42.502 16.04 42.5021 16.04 42.5022 16.04C42.5023 16.04 42.5024 16.04 42.5025 16.04C42.5026 16.04 42.5027 16.04 42.5028 16.04C42.5029 16.04 42.503 16.04 42.5031 16.04C42.5032 16.04 42.5033 16.04 42.5034 16.04C42.5035 16.04 42.5036 16.04 42.5037 16.04C42.5038 16.04 42.5039 16.04 42.504 16.04C42.5041 16.04 42.5042 16.04 42.5043 16.04C42.5044 16.04 42.5045 16.04 42.5046 16.04C42.5047 16.04 42.5047 16.04 42.5048 16.04C42.5049 16.04 42.505 16.04 42.5051 16.04C42.5052 16.04 42.5053 16.04 42.5054 16.04C42.5055 16.04 42.5056 16.04 42.5057 16.04C42.5058 16.04 42.5059 16.04 42.506 16.04C42.5061 16.04 42.5062 16.04 42.5063 16.04C42.5064 16.04 42.5065 16.04 42.5066 16.04C42.5067 16.04 42.5068 16.04 42.5068 16.04C42.5069 16.04 42.507 16.04 42.5071 16.04C42.5072 16.04 42.5073 16.04 42.5074 16.04C42.5075 16.04 42.5076 16.04 42.5077 16.04C42.5078 16.04 42.5079 16.04 42.508 16.04C42.5081 16.04 42.5082 16.04 42.5083 16.04C42.5084 16.04 42.5085 16.04 42.5086 16.04C42.5086 16.04 42.5087 16.04 42.5088 16.04C42.5089 16.04 42.509 16.04 42.5091 16.04C42.5092 16.04 42.5093 16.04 42.5094 16.04C42.5095 16.04 42.5096 16.04 42.5097 16.04C42.5098 16.04 42.5099 16.04 42.51 16.04C42.5101 16.04 42.5102 16.04 42.5102 16.04C42.5103 16.04 42.5104 16.04 42.5105 16.04C42.5106 16.04 42.5107 16.04 42.5108 16.04C42.5109 16.04 42.511 16.04 42.5111 16.04C42.5112 16.04 42.5113 16.04 42.5114 16.04C42.5115 16.04 42.5116 16.04 42.5116 16.04C42.5117 16.04 42.5118 16.04 42.5119 16.04C42.512 16.04 42.5121 16.04 42.5122 16.04C42.5123 16.04 42.5124 16.04 42.5125 16.04C42.5126 16.04 42.5127 16.04 42.5128 16.04C42.5129 16.04 42.5129 16.04 42.513 16.04C42.5131 16.04 42.5132 16.04 42.5133 16.04C42.5134 16.04 42.5135 16.04 42.5136 16.04C42.5137 16.04 42.5138 16.04 42.5139 16.04C42.514 16.04 42.5141 16.04 42.5141 16.04C42.5142 16.04 42.5143 16.04 42.5144 16.04C42.5145 16.04 42.5146 16.04 42.5147 16.04C42.5148 16.04 42.5149 16.04 42.515 16.04C42.5151 16.04 42.5152 16.04 42.5152 16.04C42.5153 16.04 42.5154 16.04 42.5155 16.04C42.5156 16.04 42.5157 16.04 42.5158 16.04C42.5159 16.04 42.516 16.04 42.5161 16.04C42.5162 16.04 42.5163 16.04 42.5163 16.04C42.5164 16.04 42.5165 16.04 42.5166 16.04C42.5167 16.04 42.5168 16.04 42.5169 16.04C42.517 16.04 42.5171 16.04 42.5172 16.04C42.5173 16.04 42.5173 16.04 42.5174 16.04C42.5175 16.04 42.5176 16.04 42.5177 16.04C42.5178 16.04 42.5179 16.04 42.518 16.04C42.5181 16.04 42.5182 16.04 42.5182 16.04C42.5183 16.04 42.5184 16.04 42.5185 16.04C42.5186 16.04 42.5187 16.04 42.5188 16.04C42.5189 16.04 42.519 16.04 42.5191 16.04C42.5191 16.04 42.5192 16.04 42.5193 16.04C42.5194 16.04 42.5195 16.04 42.5196 16.04C42.5197 16.04 42.5198 16.04 42.5199 16.04C42.52 16.04 42.52 16.04 42.5201 16.04C42.5202 16.04 42.5203 16.04 42.5204 16.04C42.5205 16.04 42.5206 16.04 42.5207 16.04C42.5208 16.04 42.5208 16.04 42.5209 16.04C42.521 16.04 42.5211 16.04 42.5212 16.04C42.5213 16.04 42.5214 16.04 42.5215 16.04C42.5216 16.04 42.5216 16.04 42.5217 16.04C42.5218 16.04 42.5219 16.04 42.522 16.04C42.5221 16.04 42.5222 16.04 42.5223 16.04C42.5223 16.04 42.5224 16.04 42.5225 16.04C42.5226 16.04 42.5227 16.04 42.5228 16.04C42.5229 16.04 42.523 16.04 42.5231 16.04C42.5231 16.04 42.5232 16.04 42.5233 16.04C42.5234 16.04 42.5235 16.04 42.5236 16.04C42.5237 16.04 42.5238 16.04 42.5238 16.04C42.5239 16.04 42.524 16.04 42.5241 16.04C42.5242 16.04 42.5243 16.04 42.5244 16.04C42.5245 16.04 42.5245 16.04 42.5246 16.04C42.5247 16.04 42.5248 16.04 42.5249 16.04C42.525 16.04 42.5251 16.04 42.5251 16.04C42.5252 16.04 42.5253 16.04 42.5254 16.04C42.5255 16.04 42.5256 16.04 42.5257 16.04C42.5258 16.04 42.5258 16.04 42.5259 16.04C42.526 16.04 42.5261 16.04 42.5262 16.04C42.5263 16.04 42.5264 16.04 42.5264 16.04C42.5265 16.04 42.5266 16.04 42.5267 16.04C42.5268 16.04 42.5269 16.04 42.527 16.04C42.527 16.04 42.5271 16.04 42.5272 16.04C42.5273 16.04 42.5274 16.04 42.5275 16.04C42.5276 16.04 42.5276 16.04 42.5277 16.04C42.5278 16.04 42.5279 16.04 42.528 16.04C42.5281 16.04 42.5282 16.04 42.5282 16.04C42.5283 16.04 42.5284 16.04 42.5285 16.04C42.5286 16.04 42.5287 16.04 42.5287 16.04C42.5288 16.04 42.5289 16.04 42.529 16.04C42.5291 16.04 42.5292 16.04 42.5293 16.04C42.5293 16.04 42.5294 16.04 42.5295 16.04C42.5296 16.04 42.5297 16.04 42.5298 16.04C42.5298 16.04 42.5299 16.04 42.53 16.04C42.5301 16.04 42.5302 16.04 42.5303 16.04C42.5304 16.04 42.5304 16.04 42.5305 16.04C42.5306 16.04 42.5307 16.04 42.5308 16.04C42.5309 16.04 42.5309 16.04 42.531 16.04C42.5311 16.04 42.5312 16.04 42.5313 16.04C42.5314 16.04 42.5314 16.04 42.5315 16.04C42.5316 16.04 42.5317 16.04 42.5318 16.04C42.5319 16.04 42.5319 16.04 42.532 16.04C42.5321 16.04 42.5322 16.04 42.5323 16.04C42.5324 16.04 42.5324 16.04 42.5325 16.04C42.5326 16.04 42.5327 16.04 42.5328 16.04C42.5328 16.04 42.5329 16.04 42.533 16.04C42.5331 16.04 42.5332 16.04 42.5333 16.04C42.5333 16.04 42.5334 16.04 42.5335 16.04C42.5336 16.04 42.5337 16.04 42.5338 16.04C42.5338 16.04 42.5339 16.04 42.534 16.04C42.5341 16.04 42.5342 16.04 42.5342 16.04C42.5343 16.04 42.5344 16.04 42.5345 16.04C42.5346 16.04 42.5347 16.04 42.5347 16.04C42.5348 16.04 42.5349 16.04 42.535 16.04C42.5351 16.04 42.5351 16.04 42.5352 16.04C42.5353 16.04 42.5354 16.04 42.5355 16.04C42.5355 16.04 42.5356 16.04 42.5357 16.04C42.5358 16.04 42.5359 16.04 42.536 16.04C42.536 16.04 42.5361 16.04 42.5362 16.04C42.5363 16.04 42.5364 16.04 42.5364 16.04C42.5365 16.04 42.5366 16.04 42.5367 16.04C42.5368 16.04 42.5368 16.04 42.5369 16.04C42.537 16.04 42.5371 16.04 42.5372 16.04C42.5372 16.04 42.5373 16.04 42.5374 16.04C42.5375 16.04 42.5376 16.04 42.5376 16.04C42.5377 16.04 42.5378 16.04 42.5379 16.04C42.538 16.04 42.538 16.04 42.5381 16.04C42.5382 16.04 42.5383 16.04 42.5383 16.04C42.5384 16.04 42.5385 16.04 42.5386 16.04C42.5387 16.04 42.5387 16.04 42.5388 16.04C42.5389 16.04 42.539 16.04 42.5391 16.04C42.5391 16.04 42.5392 16.04 42.5393 16.04C42.5394 16.04 42.5395 16.04 42.5395 16.04C42.5396 16.04 42.5397 16.04 42.5398 16.04C42.5398 16.04 42.5399 16.04 42.54 16.04V14.04ZM41.5954 15.6601L43.5554 18.1401L45.1246 16.8999L43.1646 14.4199L41.5954 15.6601ZM44.9092 18.3422C45.2154 18.1302 45.5021 17.8922 45.7471 17.6471L44.3329 16.2329C44.178 16.3878 43.9846 16.5498 43.7708 16.6978L44.9092 18.3422ZM46.04 16.94V11.8H44.04V16.94H46.04ZM45.04 10.8H37V12.8H45.04V10.8ZM38 11.8V9.56H36V11.8H38ZM37 10.56H49.66V8.56H37V10.56ZM48.66 9.56V11.8H50.66V9.56H48.66ZM39.32 16.66C39.32 17.4532 39.6268 18.1487 40.2469 18.6114C40.8206 19.0395 41.5445 19.18 42.24 19.18V17.18C41.7755 17.18 41.5394 17.0805 41.4431 17.0086C41.4022 16.9781 41.3794 16.9484 41.3628 16.9129C41.3447 16.8742 41.32 16.7975 41.32 16.66H39.32ZM42.24 19.18C42.5177 19.18 42.804 19.155 43.0761 19.1006L42.6839 17.1394C42.556 17.165 42.4023 17.18 42.24 17.18V19.18ZM43.6638 17.499L41.6038 14.899L40.0362 16.141L42.0962 18.741L43.6638 17.499ZM40.1894 14.7439C39.6093 15.2152 39.32 15.8945 39.32 16.66H41.32C41.32 16.4255 41.3907 16.3448 41.4506 16.2961L40.1894 14.7439ZM53.7228 11.8V10.8H52.7228V11.8H53.7228ZM53.7228 22V23H54.7228V22H53.7228ZM50.9228 22H49.9228V23H50.9228V22ZM50.9228 11.8H51.9228V10.8H50.9228V11.8ZM49.3828 11.8H48.3828V12.8H49.3828V11.8ZM49.3828 9.56V8.56H48.3828V9.56H49.3828ZM55.5628 9.56H56.5628V8.56H55.5628V9.56ZM55.5628 11.8V12.8H56.5628V11.8H55.5628ZM52.7228 11.8V22H54.7228V11.8H52.7228ZM53.7228 21H50.9228V23H53.7228V21ZM51.9228 22V11.8H49.9228V22H51.9228ZM50.9228 10.8H49.3828V12.8H50.9228V10.8ZM50.3828 11.8V9.56H48.3828V11.8H50.3828ZM49.3828 10.56H55.5628V8.56H49.3828V10.56ZM54.5628 9.56V11.8H56.5628V9.56H54.5628ZM55.5628 10.8H53.7228V12.8H55.5628V10.8ZM69.4417 11.8V10.8H68.4417V11.8H69.4417ZM69.4417 22V23H70.4417V22H69.4417ZM66.6417 22H65.6417V23H66.6417V22ZM66.6417 15.54H67.6417V14.54H66.6417V15.54ZM63.9017 15.48L64.0186 14.4868L60.8706 14.1165L63.2361 16.2263L63.9017 15.48ZM55.6417 14.4L55.2987 13.4607L54.389 13.7929L54.6919 14.7128L55.6417 14.4ZM57.9417 13.56L58.8949 13.2578L58.5794 12.2625L57.5987 12.6207L57.9417 13.56ZM60.5417 15.06L59.617 14.6792L59.2996 15.4503L60.001 15.9012L60.5417 15.06ZM61.2417 13.36V12.36H60.572L60.317 12.9792L61.2417 13.36ZM66.6417 13.36V14.36H67.6417V13.36H66.6417ZM66.6417 11.8H67.6417V10.8H66.6417V11.8ZM55.2617 11.8H54.2617V12.8H55.2617V11.8ZM55.2617 9.56V8.56H54.2617V9.56H55.2617ZM71.2817 9.56H72.2817V8.56H71.2817V9.56ZM71.2817 11.8V12.8H72.2817V11.8H71.2817ZM68.4417 11.8V22H70.4417V11.8H68.4417ZM69.4417 21H66.6417V23H69.4417V21ZM67.6417 22V15.54H65.6417V22H67.6417ZM66.6417 14.54H65.2417V16.54H66.6417V14.54ZM65.2417 14.54C64.7004 14.54 64.3038 14.5204 64.0186 14.4868L63.7849 16.4732C64.1796 16.5196 64.663 16.54 65.2417 16.54V14.54ZM63.2361 16.2263C63.8027 16.7316 64.0417 17.2338 64.0417 17.86H66.0417C66.0417 16.5662 65.4807 15.5484 64.5673 14.7337L63.2361 16.2263ZM64.0417 17.86C64.0417 18.5191 63.8021 18.9469 63.4549 19.2299C63.0826 19.5334 62.4959 19.74 61.7217 19.74V21.74C62.8276 21.74 63.9009 21.4466 64.7185 20.7801C65.5614 20.0931 66.0417 19.0809 66.0417 17.86H64.0417ZM61.7217 19.74C60.7044 19.74 59.8496 19.4618 59.0528 18.6946C58.2147 17.8877 57.3794 16.48 56.5916 14.0872L54.6919 14.7128C55.524 17.24 56.4888 19.0023 57.6656 20.1354C58.8838 21.3082 60.259 21.74 61.7217 21.74V19.74ZM55.9848 15.3393L58.2848 14.4993L57.5987 12.6207L55.2987 13.4607L55.9848 15.3393ZM56.9885 13.8622C57.5168 15.5284 58.0703 16.8653 58.6939 17.8035C59.3063 18.725 60.1388 19.48 61.2617 19.48V17.48C61.1447 17.48 60.8371 17.415 60.3595 16.6965C59.8931 15.9947 59.4067 14.8716 58.8949 13.2578L56.9885 13.8622ZM61.2617 19.48C61.7174 19.48 62.2586 19.3706 62.6904 18.9742C63.138 18.5634 63.3017 17.9989 63.3017 17.44H61.3017C61.3017 17.5324 61.2884 17.5681 61.2889 17.5667C61.2894 17.5655 61.2929 17.5564 61.3019 17.5428C61.3111 17.529 61.3233 17.5143 61.338 17.5008C61.3527 17.4873 61.3663 17.4782 61.3764 17.4725C61.3862 17.4671 61.3905 17.4661 61.3866 17.4674C61.3825 17.4687 61.3706 17.4719 61.3494 17.4748C61.3282 17.4777 61.2992 17.48 61.2617 17.48V19.48ZM63.3017 17.44C63.3017 15.9775 62.2618 14.977 61.0825 14.2188L60.001 15.9012C61.0616 16.583 61.3017 17.0625 61.3017 17.44H63.3017ZM61.4664 15.4407L62.1664 13.7407L60.317 12.9792L59.617 14.6792L61.4664 15.4407ZM61.2417 14.36H66.6417V12.36H61.2417V14.36ZM67.6417 13.36V11.8H65.6417V13.36H67.6417ZM66.6417 10.8H55.2617V12.8H66.6417V10.8ZM56.2617 11.8V9.56H54.2617V11.8H56.2617ZM55.2617 10.56H71.2817V8.56H55.2617V10.56ZM70.2817 9.56V11.8H72.2817V9.56H70.2817ZM71.2817 10.8H69.4417V12.8H71.2817V10.8ZM60.8417 23.14C60.8417 22.8923 61.014 22.7 61.3017 22.7V20.7C59.9094 20.7 58.8417 21.7877 58.8417 23.14H60.8417ZM61.3017 22.7C61.4417 22.7 61.5378 22.7508 61.6018 22.8167C61.6686 22.8854 61.7217 22.9935 61.7217 23.14H63.7217C63.7217 21.8155 62.7014 20.7 61.3017 20.7V22.7ZM61.7217 23.14C61.7217 23.3157 61.6626 23.4169 61.6086 23.4714C61.5549 23.5257 61.4607 23.58 61.3017 23.58V25.58C62.6833 25.58 63.7217 24.523 63.7217 23.14H61.7217ZM61.3017 23.58C60.9956 23.58 60.8417 23.4095 60.8417 23.14H58.8417C58.8417 24.5505 59.9278 25.58 61.3017 25.58V23.58ZM75.3244 11.8V10.8H74.3244V11.8H75.3244ZM75.3244 22V23H76.3244V22H75.3244ZM72.5244 22H71.5244V23H72.5244V22ZM72.5244 11.8H73.5244V10.8H72.5244V11.8ZM70.9844 11.8H69.9844V12.8H70.9844V11.8ZM70.9844 9.56V8.56H69.9844V9.56H70.9844ZM72.5044 9.56V10.56H73.7677L73.4777 9.33045L72.5044 9.56ZM69.1644 9.7V10.7H70.7824L70.0588 9.25279L69.1644 9.7ZM66.4444 9.7L65.5411 10.1291L65.8123 10.7H66.4444V9.7ZM75.0644 9.56L74.0922 9.79405L74.2765 10.56H75.0644V9.56ZM77.1644 9.56H78.1644V8.56H77.1644V9.56ZM77.1644 11.8V12.8H78.1644V11.8H77.1644ZM74.3244 11.8V22H76.3244V11.8H74.3244ZM75.3244 21H72.5244V23H75.3244V21ZM73.5244 22V11.8H71.5244V22H73.5244ZM72.5244 10.8H70.9844V12.8H72.5244V10.8ZM71.9844 11.8V9.56H69.9844V11.8H71.9844ZM70.9844 10.56H72.5044V8.56H70.9844V10.56ZM73.4777 9.33045C73.2154 8.21851 72.8558 7.25141 72.3235 6.54383C71.7596 5.79422 70.9826 5.32 70.0044 5.32V7.32C70.2462 7.32 70.4692 7.40578 70.7253 7.74617C71.0129 8.12859 71.2933 8.78149 71.5311 9.78955L73.4777 9.33045ZM70.0044 5.32C69.3318 5.32 68.6841 5.52684 68.2189 6.04313C67.77 6.54142 67.6244 7.18156 67.6244 7.78H69.6244C69.6244 7.47844 69.6988 7.38858 69.7048 7.38187C69.7077 7.37864 69.7168 7.36811 69.7505 7.35517C69.7886 7.34055 69.8672 7.32 70.0044 7.32V5.32ZM67.6244 7.78C67.6244 8.66874 67.9433 9.49389 68.2699 10.1472L70.0588 9.25279C69.7855 8.70611 69.6244 8.21126 69.6244 7.78H67.6244ZM69.1644 8.7H66.4444V10.7H69.1644V8.7ZM67.3477 9.27094C67.0132 8.56673 66.8444 7.89434 66.8444 7.32H64.8444C64.8444 8.26566 65.1156 9.23327 65.5411 10.1291L67.3477 9.27094ZM66.8444 7.32C66.8444 6.583 67.0922 6.0599 67.4831 5.71078C67.8864 5.35048 68.5507 5.08 69.5444 5.08V3.08C68.198 3.08 67.0123 3.44952 66.1507 4.21922C65.2765 5.0001 64.8444 6.097 64.8444 7.32H66.8444ZM69.5444 5.08C70.9457 5.08 71.8514 5.53739 72.5132 6.27354C73.2159 7.05519 73.7165 8.23347 74.0922 9.79405L76.0366 9.32595C75.6323 7.64652 75.0329 6.08481 74.0006 4.93646C72.9273 3.74261 71.4631 3.08 69.5444 3.08V5.08ZM75.0644 10.56H77.1644V8.56H75.0644V10.56ZM76.1644 9.56V11.8H78.1644V9.56H76.1644ZM77.1644 10.8H75.3244V12.8H77.1644V10.8Z" fill="black" mask="url(#path-1-outside-1_25_268)"/>
<mask id="path-3-outside-2_25_268" maskUnits="userSpaceOnUse" x="0" y="3" width="39" height="21" fill="black">
<rect fill="white" y="3" width="39" height="21"/>
<path d="M16.98 11.8V22H14.18V21.28C13.18 21.74 12 21.96 10.5 21.96C7.06 21.96 4.54 20.48 3.06 18.66C2.14 17.54 1.66 16.46 1.66 15.5C1.66 14.58 2.28 14.08 3.14 14.08C3.7 14.08 4.18 14.28 4.7 14.7C4.96 14.24 5.06 13.72 5.06 13.16C5.06 12.68 5 12.2 4.86 11.8H1V9.56H18.82V11.8H16.98ZM12.48 16.66C13.18 16.66 13.76 16.44 14.18 16.04V11.8H7.6C7.74 12.24 7.86 12.78 7.86 13.42C7.86 15.3 6.88 16.54 5.02 17.38C6.2 18.86 8.14 19.74 10.66 19.74C11.96 19.74 13.08 19.56 14.18 19.1V18.24C13.66 18.46 13.04 18.6 12.2 18.6C10.04 18.6 8.54 17.46 8.54 15.58C8.54 13.68 9.84 12.68 12.08 12.68C12.64 12.68 13.16 12.74 13.6 12.82L13.44 14.74C13.16 14.68 12.86 14.64 12.5 14.64C11.54 14.64 11.08 14.98 11.08 15.66C11.08 16.34 11.66 16.66 12.48 16.66ZM14.2795 9.7C13.3595 6.92 12.9395 6.36 11.7995 6.36C11.3195 6.36 10.7795 6.48 10.3195 6.66L9.61953 4.48C10.3395 4.2 11.1395 4.08 11.9195 4.08C14.3795 4.08 15.2995 5.24 16.6795 9.7H14.2795ZM29.3795 11.8V22H26.5795V16.18H24.0395C22.7195 16.18 22.0195 16.66 22.0195 17.7C22.0195 18.7 22.7395 19.6 24.0995 20.86L22.0395 22.46C20.2595 20.72 19.2195 19.24 19.2195 17.38C19.2195 15.04 20.7995 13.94 23.6595 13.94H26.5795V11.8H18.5195V9.56H31.2195V11.8H29.3795ZM35.2619 11.8V22H32.4619V11.8H30.9219V9.56H32.4419C31.9419 7.44 31.1619 6.32 29.9419 6.32C29.0019 6.32 28.5619 6.88 28.5619 7.78C28.5619 8.44 28.8019 9.1 29.1019 9.7H26.3819C26.0019 8.9 25.7819 8.08 25.7819 7.32C25.7819 5.36 27.1419 4.08 29.4819 4.08C32.8019 4.08 34.2219 6.32 35.0019 9.56H37.1019V11.8H35.2619Z"/>
</mask>
<path d="M16.98 11.8V22H14.18V21.28C13.18 21.74 12 21.96 10.5 21.96C7.06 21.96 4.54 20.48 3.06 18.66C2.14 17.54 1.66 16.46 1.66 15.5C1.66 14.58 2.28 14.08 3.14 14.08C3.7 14.08 4.18 14.28 4.7 14.7C4.96 14.24 5.06 13.72 5.06 13.16C5.06 12.68 5 12.2 4.86 11.8H1V9.56H18.82V11.8H16.98ZM12.48 16.66C13.18 16.66 13.76 16.44 14.18 16.04V11.8H7.6C7.74 12.24 7.86 12.78 7.86 13.42C7.86 15.3 6.88 16.54 5.02 17.38C6.2 18.86 8.14 19.74 10.66 19.74C11.96 19.74 13.08 19.56 14.18 19.1V18.24C13.66 18.46 13.04 18.6 12.2 18.6C10.04 18.6 8.54 17.46 8.54 15.58C8.54 13.68 9.84 12.68 12.08 12.68C12.64 12.68 13.16 12.74 13.6 12.82L13.44 14.74C13.16 14.68 12.86 14.64 12.5 14.64C11.54 14.64 11.08 14.98 11.08 15.66C11.08 16.34 11.66 16.66 12.48 16.66ZM14.2795 9.7C13.3595 6.92 12.9395 6.36 11.7995 6.36C11.3195 6.36 10.7795 6.48 10.3195 6.66L9.61953 4.48C10.3395 4.2 11.1395 4.08 11.9195 4.08C14.3795 4.08 15.2995 5.24 16.6795 9.7H14.2795ZM29.3795 11.8V22H26.5795V16.18H24.0395C22.7195 16.18 22.0195 16.66 22.0195 17.7C22.0195 18.7 22.7395 19.6 24.0995 20.86L22.0395 22.46C20.2595 20.72 19.2195 19.24 19.2195 17.38C19.2195 15.04 20.7995 13.94 23.6595 13.94H26.5795V11.8H18.5195V9.56H31.2195V11.8H29.3795ZM35.2619 11.8V22H32.4619V11.8H30.9219V9.56H32.4419C31.9419 7.44 31.1619 6.32 29.9419 6.32C29.0019 6.32 28.5619 6.88 28.5619 7.78C28.5619 8.44 28.8019 9.1 29.1019 9.7H26.3819C26.0019 8.9 25.7819 8.08 25.7819 7.32C25.7819 5.36 27.1419 4.08 29.4819 4.08C32.8019 4.08 34.2219 6.32 35.0019 9.56H37.1019V11.8H35.2619Z" fill="#15803D"/>
<path d="M16.98 11.8V10.8H15.98V11.8H16.98ZM16.98 22V23H17.98V22H16.98ZM14.18 22H13.18V23H14.18V22ZM14.18 21.28H15.18V19.7193L13.7621 20.3715L14.18 21.28ZM3.06 18.66L3.83586 18.0291L3.83273 18.0253L3.06 18.66ZM4.7 14.7L4.07166 15.4779L4.98982 16.2195L5.57056 15.1921L4.7 14.7ZM4.86 11.8L5.80386 11.4696L5.56948 10.8H4.86V11.8ZM1 11.8H0V12.8H1V11.8ZM1 9.56V8.56H0V9.56H1ZM18.82 9.56H19.82V8.56H18.82V9.56ZM18.82 11.8V12.8H19.82V11.8H18.82ZM14.18 16.04L14.8697 16.7641L15.18 16.4686V16.04H14.18ZM14.18 11.8H15.18V10.8H14.18V11.8ZM7.6 11.8V10.8H6.23242L6.64707 12.1032L7.6 11.8ZM5.02 17.38L4.60841 16.4686L3.43643 16.9979L4.2381 18.0034L5.02 17.38ZM14.18 19.1L14.5658 20.0226L15.18 19.7657V19.1H14.18ZM14.18 18.24H15.18V16.7311L13.7904 17.319L14.18 18.24ZM13.6 12.82L14.5965 12.903L14.6719 11.9985L13.7789 11.8361L13.6 12.82ZM13.44 14.74L13.2305 15.7178L14.3421 15.956L14.4365 14.823L13.44 14.74ZM15.98 11.8V22H17.98V11.8H15.98ZM16.98 21H14.18V23H16.98V21ZM15.18 22V21.28H13.18V22H15.18ZM13.7621 20.3715C12.9304 20.7541 11.9033 20.96 10.5 20.96V22.96C12.0967 22.96 13.4296 22.7259 14.5979 22.1885L13.7621 20.3715ZM10.5 20.96C7.36602 20.96 5.12916 19.6195 3.83585 18.0291L2.28415 19.2909C3.95084 21.3405 6.75398 22.96 10.5 22.96V20.96ZM3.83273 18.0253C2.98687 16.9955 2.66 16.1352 2.66 15.5H0.66C0.66 16.7848 1.29313 18.0845 2.28727 19.2947L3.83273 18.0253ZM2.66 15.5C2.66 15.2765 2.72751 15.2057 2.75227 15.183C2.78971 15.1488 2.89843 15.08 3.14 15.08V13.08C2.52157 13.08 1.89029 13.2612 1.40273 13.707C0.902488 14.1643 0.66 14.8035 0.66 15.5H2.66ZM3.14 15.08C3.41487 15.08 3.68002 15.1616 4.07166 15.4779L5.32834 13.9221C4.67998 13.3984 3.98513 13.08 3.14 13.08V15.08ZM5.57056 15.1921C5.93905 14.5401 6.06 13.837 6.06 13.16H4.06C4.06 13.603 3.98095 13.9399 3.82944 14.2079L5.57056 15.1921ZM6.06 13.16C6.06 12.6084 5.99248 12.0086 5.80386 11.4696L3.91614 12.1303C4.00752 12.3914 4.06 12.7516 4.06 13.16H6.06ZM4.86 10.8H1V12.8H4.86V10.8ZM2 11.8V9.56H0V11.8H2ZM1 10.56H18.82V8.56H1V10.56ZM17.82 9.56V11.8H19.82V9.56H17.82ZM18.82 10.8H16.98V12.8H18.82V10.8ZM12.48 17.66C13.3959 17.66 14.2361 17.3675 14.8697 16.7641L13.4903 15.3159C13.2839 15.5125 12.9641 15.66 12.48 15.66V17.66ZM15.18 16.04V11.8H13.18V16.04H15.18ZM14.18 10.8H7.6V12.8H14.18V10.8ZM6.64707 12.1032C6.76464 12.4727 6.86 12.9083 6.86 13.42H8.86C8.86 12.6517 8.71536 12.0073 8.55293 11.4968L6.64707 12.1032ZM6.86 13.42C6.86 14.1741 6.66783 14.7402 6.33159 15.198C5.98577 15.6687 5.43521 16.0952 4.60841 16.4686L5.43159 18.2914C6.46479 17.8248 7.33423 17.2113 7.94341 16.382C8.56217 15.5398 8.86 14.5459 8.86 13.42H6.86ZM4.2381 18.0034C5.64734 19.7709 7.90519 20.74 10.66 20.74V18.74C8.37481 18.74 6.75266 17.9491 5.8019 16.7566L4.2381 18.0034ZM10.66 20.74C12.0592 20.74 13.3163 20.5451 14.5658 20.0226L13.7942 18.1774C12.8437 18.5749 11.8608 18.74 10.66 18.74V20.74ZM15.18 19.1V18.24H13.18V19.1H15.18ZM13.7904 17.319C13.406 17.4816 12.9203 17.6 12.2 17.6V19.6C13.1597 19.6 13.914 19.4384 14.5696 19.161L13.7904 17.319ZM12.2 17.6C11.2859 17.6 10.6116 17.3583 10.1876 17.0165C9.78613 16.6928 9.54 16.228 9.54 15.58H7.54C7.54 16.812 8.04387 17.8572 8.93237 18.5735C9.79837 19.2717 10.9541 19.6 12.2 19.6V17.6ZM9.54 15.58C9.54 14.8769 9.76818 14.4615 10.0974 14.1962C10.4609 13.9033 11.09 13.68 12.08 13.68V11.68C10.83 11.68 9.68912 11.9567 8.84256 12.6388C7.96182 13.3485 7.54 14.3831 7.54 15.58H9.54ZM12.08 13.68C12.57 13.68 13.0294 13.7327 13.4211 13.8039L13.7789 11.8361C13.2906 11.7473 12.71 11.68 12.08 11.68V13.68ZM12.6035 12.737L12.4435 14.657L14.4365 14.823L14.5965 12.903L12.6035 12.737ZM13.6495 13.7622C13.31 13.6894 12.9394 13.64 12.5 13.64V15.64C12.7806 15.64 13.01 15.6706 13.2305 15.7178L13.6495 13.7622ZM12.5 13.64C11.9335 13.64 11.328 13.7346 10.8439 14.0848C10.2973 14.4802 10.08 15.0687 10.08 15.66H12.08C12.08 15.6017 12.0898 15.6 12.0768 15.6286C12.061 15.6633 12.0349 15.6917 12.0161 15.7052C12.0039 15.7141 12.0229 15.6961 12.1052 15.6764C12.1881 15.6567 12.3156 15.64 12.5 15.64V13.64ZM10.08 15.66C10.08 16.3339 10.3918 16.8964 10.9178 17.2471C11.3913 17.5627 11.9627 17.66 12.48 17.66V15.66C12.3379 15.66 12.2278 15.6459 12.1481 15.6269C12.0678 15.6076 12.0332 15.587 12.0272 15.5829C12.0252 15.5816 12.0465 15.5965 12.0652 15.6315C12.0841 15.6667 12.08 15.6843 12.08 15.66H10.08ZM14.2795 9.7L13.3302 10.0142L13.5571 10.7H14.2795V9.7ZM10.3195 6.66L9.36741 6.96573L9.6928 7.97908L10.6839 7.59124L10.3195 6.66ZM9.61953 4.48L9.25708 3.54799L8.37955 3.88926L8.66741 4.78573L9.61953 4.48ZM16.6795 9.7V10.7H18.0357L17.6348 9.40441L16.6795 9.7ZM15.2289 9.38582C14.7784 8.02469 14.3997 7.02981 13.9245 6.3908C13.664 6.04043 13.3491 5.75833 12.9476 5.57839C12.557 5.40334 12.1614 5.36 11.7995 5.36V7.36C12.0077 7.36 12.0921 7.38666 12.1296 7.40348C12.1563 7.41542 12.2176 7.44707 12.3196 7.5842C12.5694 7.92019 12.8606 8.59531 13.3302 10.0142L15.2289 9.38582ZM11.7995 5.36C11.171 5.36 10.5067 5.51292 9.95513 5.72876L10.6839 7.59124C11.0523 7.44708 11.4681 7.36 11.7995 7.36V5.36ZM11.2717 6.35427L10.5717 4.17427L8.66741 4.78573L9.36741 6.96573L11.2717 6.35427ZM9.98198 5.412C10.5633 5.18592 11.2361 5.08 11.9195 5.08V3.08C11.043 3.08 10.1157 3.21408 9.25708 3.54799L9.98198 5.412ZM11.9195 5.08C12.4611 5.08 12.844 5.14473 13.1411 5.26156C13.4245 5.37302 13.6796 5.55128 13.938 5.85968C14.5017 6.53261 15.0293 7.74965 15.7242 9.99559L17.6348 9.40441C16.9498 7.19035 16.3273 5.59739 15.4711 4.57532C15.0195 4.03622 14.4971 3.64573 13.873 3.40031C13.2626 3.16027 12.608 3.08 11.9195 3.08V5.08ZM16.6795 8.7H14.2795V10.7H16.6795V8.7ZM29.3795 11.8V10.8H28.3795V11.8H29.3795ZM29.3795 22V23H30.3795V22H29.3795ZM26.5795 22H25.5795V23H26.5795V22ZM26.5795 16.18H27.5795V15.18H26.5795V16.18ZM24.0995 20.86L24.7129 21.6498L25.6434 20.9271L24.7792 20.1264L24.0995 20.86ZM22.0395 22.46L21.3405 23.1751L21.9642 23.7847L22.6529 23.2498L22.0395 22.46ZM26.5795 13.94V14.94H27.5795V13.94H26.5795ZM26.5795 11.8H27.5795V10.8H26.5795V11.8ZM18.5195 11.8H17.5195V12.8H18.5195V11.8ZM18.5195 9.56V8.56H17.5195V9.56H18.5195ZM31.2195 9.56H32.2195V8.56H31.2195V9.56ZM31.2195 11.8V12.8H32.2195V11.8H31.2195ZM28.3795 11.8V22H30.3795V11.8H28.3795ZM29.3795 21H26.5795V23H29.3795V21ZM27.5795 22V16.18H25.5795V22H27.5795ZM26.5795 15.18H24.0395V17.18H26.5795V15.18ZM24.0395 15.18C23.2886 15.18 22.5314 15.3111 21.9421 15.7443C21.2944 16.2206 21.0195 16.9317 21.0195 17.7H23.0195C23.0195 17.5511 23.0445 17.4716 23.0611 17.4349C23.075 17.404 23.0922 17.3812 23.1269 17.3557C23.2177 17.2889 23.4705 17.18 24.0395 17.18V15.18ZM21.0195 17.7C21.0195 18.4624 21.3004 19.1327 21.7263 19.7502C22.1416 20.3524 22.7291 20.9535 23.4199 21.5936L24.7792 20.1264C24.11 19.5065 23.6575 19.0276 23.3727 18.6148C23.0987 18.2173 23.0195 17.9376 23.0195 17.7H21.0195ZM23.4861 20.0702L21.4261 21.6702L22.6529 23.2498L24.7129 21.6498L23.4861 20.0702ZM22.7386 21.7449C20.9915 20.0371 20.2195 18.8089 20.2195 17.38H18.2195C18.2195 19.6711 19.5276 21.4029 21.3405 23.1751L22.7386 21.7449ZM20.2195 17.38C20.2195 16.4575 20.5158 15.9228 20.9692 15.5809C21.4739 15.2002 22.3305 14.94 23.6595 14.94V12.94C22.1285 12.94 20.7651 13.2298 19.7649 13.9841C18.7133 14.7772 18.2195 15.9625 18.2195 17.38H20.2195ZM23.6595 14.94H26.5795V12.94H23.6595V14.94ZM27.5795 13.94V11.8H25.5795V13.94H27.5795ZM26.5795 10.8H18.5195V12.8H26.5795V10.8ZM19.5195 11.8V9.56H17.5195V11.8H19.5195ZM18.5195 10.56H31.2195V8.56H18.5195V10.56ZM30.2195 9.56V11.8H32.2195V9.56H30.2195ZM31.2195 10.8H29.3795V12.8H31.2195V10.8ZM35.2619 11.8V10.8H34.2619V11.8H35.2619ZM35.2619 22V23H36.2619V22H35.2619ZM32.4619 22H31.4619V23H32.4619V22ZM32.4619 11.8H33.4619V10.8H32.4619V11.8ZM30.9219 11.8H29.9219V12.8H30.9219V11.8ZM30.9219 9.56V8.56H29.9219V9.56H30.9219ZM32.4419 9.56V10.56H33.7052L33.4152 9.33045L32.4419 9.56ZM29.1019 9.7V10.7H30.7199L29.9963 9.25279L29.1019 9.7ZM26.3819 9.7L25.4786 10.1291L25.7498 10.7H26.3819V9.7ZM35.0019 9.56L34.0297 9.79405L34.214 10.56H35.0019V9.56ZM37.1019 9.56H38.1019V8.56H37.1019V9.56ZM37.1019 11.8V12.8H38.1019V11.8H37.1019ZM34.2619 11.8V22H36.2619V11.8H34.2619ZM35.2619 21H32.4619V23H35.2619V21ZM33.4619 22V11.8H31.4619V22H33.4619ZM32.4619 10.8H30.9219V12.8H32.4619V10.8ZM31.9219 11.8V9.56H29.9219V11.8H31.9219ZM30.9219 10.56H32.4419V8.56H30.9219V10.56ZM33.4152 9.33045C33.1529 8.21851 32.7933 7.25141 32.261 6.54383C31.6971 5.79422 30.9201 5.32 29.9419 5.32V7.32C30.1837 7.32 30.4067 7.40578 30.6628 7.74617C30.9504 8.12859 31.2308 8.78149 31.4686 9.78955L33.4152 9.33045ZM29.9419 5.32C29.2693 5.32 28.6216 5.52684 28.1564 6.04313C27.7075 6.54142 27.5619 7.18156 27.5619 7.78H29.5619C29.5619 7.47844 29.6363 7.38858 29.6423 7.38187C29.6452 7.37864 29.6543 7.36811 29.688 7.35517C29.7261 7.34055 29.8047 7.32 29.9419 7.32V5.32ZM27.5619 7.78C27.5619 8.66874 27.8808 9.49389 28.2074 10.1472L29.9963 9.25279C29.723 8.70611 29.5619 8.21126 29.5619 7.78H27.5619ZM29.1019 8.7H26.3819V10.7H29.1019V8.7ZM27.2852 9.27094C26.9507 8.56673 26.7819 7.89434 26.7819 7.32H24.7819C24.7819 8.26566 25.0531 9.23327 25.4786 10.1291L27.2852 9.27094ZM26.7819 7.32C26.7819 6.583 27.0297 6.0599 27.4206 5.71078C27.8239 5.35048 28.4882 5.08 29.4819 5.08V3.08C28.1355 3.08 26.9498 3.44952 26.0882 4.21922C25.214 5.0001 24.7819 6.097 24.7819 7.32H26.7819ZM29.4819 5.08C30.8832 5.08 31.7889 5.53739 32.4507 6.27354C33.1534 7.05519 33.654 8.23347 34.0297 9.79405L35.9741 9.32595C35.5698 7.64652 34.9704 6.08481 33.9381 4.93646C32.8648 3.74261 31.4006 3.08 29.4819 3.08V5.08ZM35.0019 10.56H37.1019V8.56H35.0019V10.56ZM36.1019 9.56V11.8H38.1019V9.56H36.1019ZM37.1019 10.8H35.2619V12.8H37.1019V10.8Z" fill="black" mask="url(#path-3-outside-2_25_268)"/>
</svg>
